{
	"asset":{
		"generator":"Khronos glTF Blender I/O v4.5.47",
		"version":"2.0"
	},
	"extensionsUsed":[
		"EXT_texture_webp",
		"KHR_materials_emissive_strength",
		"KHR_materials_specular"
	],
	"extensionsRequired":[
		"EXT_texture_webp"
	],
	"scene":0,
	"scenes":[
		{
			"name":"Scene",
			"nodes":[
				0
			]
		}
	],
	"nodes":[
		{
			"mesh":0,
			"name":"car_body"
		}
	],
	"materials":[
		{
			"doubleSided":true,
			"emissiveFactor":[
				1,
				1,
				1
			],
			"emissiveTexture":{
				"index":0
			},
			"extensions":{
				"KHR_materials_emissive_strength":{
					"emissiveStrength":5
				},
				"KHR_materials_specular":{
					"specularColorFactor":[
						1.5999999046325684,
						1.5999999046325684,
						1.5999999046325684
					]
				}
			},
			"name":"car_body",
			"pbrMetallicRoughness":{
				"baseColorFactor":[
					0.010242929682135582,
					0.010242929682135582,
					0.010242929682135582,
					1
				],
				"metallicFactor":0,
				"roughnessFactor":0.4000000059604645
			}
		},
		{
			"doubleSided":true,
			"extensions":{
				"KHR_materials_specular":{
					"specularColorFactor":[
						1.5999999046325684,
						1.5999999046325684,
						1.5999999046325684
					]
				}
			},
			"name":"car_paint",
			"pbrMetallicRoughness":{
				"baseColorFactor":[
					1,
					0.17925024032592773,
					0,
					1
				],
				"metallicFactor":0,
				"roughnessFactor":0.05000000074505806
			}
		},
		{
			"doubleSided":true,
			"name":"car_mirror",
			"pbrMetallicRoughness":{
				"roughnessFactor":0
			}
		},
		{
			"doubleSided":true,
			"name":"car_metal",
			"pbrMetallicRoughness":{
				"roughnessFactor":0.05000000074505806
			}
		}
	],
	"meshes":[
		{
			"name":"car_body_mesh",
			"primitives":[
				{
					"attributes":{
						"POSITION":0,
						"NORMAL":1,
						"TEXCOORD_0":2,
						"COLOR_0":3,
						"COLOR_1":4
					},
					"indices":5,
					"material":0
				},
				{
					"attributes":{
						"POSITION":6,
						"NORMAL":7,
						"TEXCOORD_0":8,
						"COLOR_0":9,
						"COLOR_1":10
					},
					"indices":11,
					"material":1
				},
				{
					"attributes":{
						"POSITION":12,
						"NORMAL":13,
						"TEXCOORD_0":14,
						"COLOR_0":15,
						"COLOR_1":16
					},
					"indices":17,
					"material":2
				},
				{
					"attributes":{
						"POSITION":18,
						"NORMAL":19,
						"TEXCOORD_0":20,
						"COLOR_0":21,
						"COLOR_1":22
					},
					"indices":23,
					"material":3
				}
			]
		}
	],
	"textures":[
		{
			"extensions":{
				"EXT_texture_webp":{
					"source":0
				}
			},
			"sampler":0
		}
	],
	"images":[
		{
			"mimeType":"image/webp",
			"name":"body_emission",
			"uri":"body_emission.webp"
		}
	],
	"accessors":[
		{
			"bufferView":0,
			"componentType":5126,
			"count":19292,
			"max":[
				1.1380321979522705,
				0.8824501037597656,
				2.432309627532959
			],
			"min":[
				-1.130954623222351,
				-0.2833855152130127,
				-2.354604959487915
			],
			"type":"VEC3"
		},
		{
			"bufferView":1,
			"componentType":5126,
			"count":19292,
			"type":"VEC3"
		},
		{
			"bufferView":2,
			"componentType":5126,
			"count":19292,
			"type":"VEC2"
		},
		{
			"bufferView":3,
			"componentType":5121,
			"count":19292,
			"normalized":true,
			"type":"VEC4"
		},
		{
			"bufferView":4,
			"componentType":5123,
			"count":19292,
			"normalized":true,
			"type":"VEC4"
		},
		{
			"bufferView":5,
			"componentType":5123,
			"count":76377,
			"type":"SCALAR"
		},
		{
			"bufferView":6,
			"componentType":5126,
			"count":11047,
			"max":[
				1.1294349431991577,
				0.8084859848022461,
				2.419574737548828
			],
			"min":[
				-1.1223573684692383,
				-0.2764577269554138,
				-2.316365957260132
			],
			"type":"VEC3"
		},
		{
			"bufferView":7,
			"componentType":5126,
			"count":11047,
			"type":"VEC3"
		},
		{
			"bufferView":8,
			"componentType":5126,
			"count":11047,
			"type":"VEC2"
		},
		{
			"bufferView":9,
			"componentType":5121,
			"count":11047,
			"normalized":true,
			"type":"VEC4"
		},
		{
			"bufferView":10,
			"componentType":5123,
			"count":11047,
			"normalized":true,
			"type":"VEC4"
		},
		{
			"bufferView":11,
			"componentType":5123,
			"count":49371,
			"type":"SCALAR"
		},
		{
			"bufferView":12,
			"componentType":5126,
			"count":60,
			"max":[
				0.9970059394836426,
				0.5664763450622559,
				0.6589613556861877
			],
			"min":[
				-0.9899299144744873,
				0.4951106905937195,
				0.6256893873214722
			],
			"type":"VEC3"
		},
		{
			"bufferView":13,
			"componentType":5126,
			"count":60,
			"type":"VEC3"
		},
		{
			"bufferView":14,
			"componentType":5126,
			"count":60,
			"type":"VEC2"
		},
		{
			"bufferView":15,
			"componentType":5121,
			"count":60,
			"normalized":true,
			"type":"VEC4"
		},
		{
			"bufferView":16,
			"componentType":5123,
			"count":60,
			"normalized":true,
			"type":"VEC4"
		},
		{
			"bufferView":17,
			"componentType":5123,
			"count":174,
			"type":"SCALAR"
		},
		{
			"bufferView":18,
			"componentType":5126,
			"count":950,
			"max":[
				1.0117982625961304,
				0.45204266905784607,
				2.247267484664917
			],
			"min":[
				-1.0039173364639282,
				-0.01487666368484497,
				-2.2532706260681152
			],
			"type":"VEC3"
		},
		{
			"bufferView":19,
			"componentType":5126,
			"count":950,
			"type":"VEC3"
		},
		{
			"bufferView":20,
			"componentType":5126,
			"count":950,
			"type":"VEC2"
		},
		{
			"bufferView":21,
			"componentType":5121,
			"count":950,
			"normalized":true,
			"type":"VEC4"
		},
		{
			"bufferView":22,
			"componentType":5123,
			"count":950,
			"normalized":true,
			"type":"VEC4"
		},
		{
			"bufferView":23,
			"componentType":5123,
			"count":3600,
			"type":"SCALAR"
		}
	],
	"bufferViews":[
		{
			"buffer":0,
			"byteLength":231504,
			"byteOffset":0,
			"target":34962
		},
		{
			"buffer":0,
			"byteLength":231504,
			"byteOffset":231504,
			"target":34962
		},
		{
			"buffer":0,
			"byteLength":154336,
			"byteOffset":463008,
			"target":34962
		},
		{
			"buffer":0,
			"byteLength":77168,
			"byteOffset":617344,
			"target":34962
		},
		{
			"buffer":0,
			"byteLength":154336,
			"byteOffset":694512,
			"target":34962
		},
		{
			"buffer":0,
			"byteLength":152754,
			"byteOffset":848848,
			"target":34963
		},
		{
			"buffer":0,
			"byteLength":132564,
			"byteOffset":1001604,
			"target":34962
		},
		{
			"buffer":0,
			"byteLength":132564,
			"byteOffset":1134168,
			"target":34962
		},
		{
			"buffer":0,
			"byteLength":88376,
			"byteOffset":1266732,
			"target":34962
		},
		{
			"buffer":0,
			"byteLength":44188,
			"byteOffset":1355108,
			"target":34962
		},
		{
			"buffer":0,
			"byteLength":88376,
			"byteOffset":1399296,
			"target":34962
		},
		{
			"buffer":0,
			"byteLength":98742,
			"byteOffset":1487672,
			"target":34963
		},
		{
			"buffer":0,
			"byteLength":720,
			"byteOffset":1586416,
			"target":34962
		},
		{
			"buffer":0,
			"byteLength":720,
			"byteOffset":1587136,
			"target":34962
		},
		{
			"buffer":0,
			"byteLength":480,
			"byteOffset":1587856,
			"target":34962
		},
		{
			"buffer":0,
			"byteLength":240,
			"byteOffset":1588336,
			"target":34962
		},
		{
			"buffer":0,
			"byteLength":480,
			"byteOffset":1588576,
			"target":34962
		},
		{
			"buffer":0,
			"byteLength":348,
			"byteOffset":1589056,
			"target":34963
		},
		{
			"buffer":0,
			"byteLength":11400,
			"byteOffset":1589404,
			"target":34962
		},
		{
			"buffer":0,
			"byteLength":11400,
			"byteOffset":1600804,
			"target":34962
		},
		{
			"buffer":0,
			"byteLength":7600,
			"byteOffset":1612204,
			"target":34962
		},
		{
			"buffer":0,
			"byteLength":3800,
			"byteOffset":1619804,
			"target":34962
		},
		{
			"buffer":0,
			"byteLength":7600,
			"byteOffset":1623604,
			"target":34962
		},
		{
			"buffer":0,
			"byteLength":7200,
			"byteOffset":1631204,
			"target":34963
		}
	],
	"samplers":[
		{
			"magFilter":9729,
			"minFilter":9987
		}
	],
	"buffers":[
		{
			"byteLength":1638404,
			"uri":"goblin_chassis.bin"
		}
	]
}
