{
	"asset":{
		"generator":"Khronos glTF Blender I/O v4.5.47",
		"version":"2.0"
	},
	"extensionsUsed":[
		"KHR_materials_specular"
	],
	"scene":0,
	"scenes":[
		{
			"name":"Scene",
			"nodes":[
				0
			]
		}
	],
	"nodes":[
		{
			"mesh":0,
			"name":"car_wheel"
		}
	],
	"materials":[
		{
			"doubleSided":true,
			"extensions":{
				"KHR_materials_specular":{
					"specularColorFactor":[
						1.5999999046325684,
						1.5999999046325684,
						1.5999999046325684
					]
				}
			},
			"name":"metal",
			"pbrMetallicRoughness":{
				"baseColorFactor":[
					0.06554577499628067,
					0.06554577499628067,
					0.06554577499628067,
					1
				],
				"roughnessFactor":0.2454545646905899
			}
		},
		{
			"doubleSided":true,
			"name":"tire",
			"normalTexture":{
				"index":0
			},
			"pbrMetallicRoughness":{
				"baseColorFactor":[
					0.0027899998240172863,
					0.0027899998240172863,
					0.0027899998240172863,
					1
				],
				"metallicFactor":0,
				"metallicRoughnessTexture":{
					"index":1
				}
			}
		}
	],
	"meshes":[
		{
			"name":"car_wheel_mesh",
			"primitives":[
				{
					"attributes":{
						"POSITION":0,
						"NORMAL":1,
						"TEXCOORD_0":2,
						"COLOR_0":3,
						"COLOR_1":4
					},
					"indices":5,
					"material":0
				},
				{
					"attributes":{
						"POSITION":6,
						"NORMAL":7,
						"TEXCOORD_0":8,
						"COLOR_0":9,
						"COLOR_1":10
					},
					"indices":11,
					"material":1
				}
			]
		}
	],
	"textures":[
		{
			"sampler":0,
			"source":0
		},
		{
			"sampler":0,
			"source":1
		}
	],
	"images":[
		{
			"mimeType":"image/png",
			"name":"tire_normals",
			"uri":"tire_normals.png"
		},
		{
			"mimeType":"image/png",
			"name":"tire_roughness",
			"uri":"tire_roughness.png"
		}
	],
	"accessors":[
		{
			"bufferView":0,
			"componentType":5126,
			"count":3049,
			"max":[
				0.17606031894683838,
				0.28537023067474365,
				0.2854326665401459
			],
			"min":[
				-0.18536582589149475,
				-0.28550082445144653,
				-0.2854384481906891
			],
			"type":"VEC3"
		},
		{
			"bufferView":1,
			"componentType":5126,
			"count":3049,
			"type":"VEC3"
		},
		{
			"bufferView":2,
			"componentType":5126,
			"count":3049,
			"type":"VEC2"
		},
		{
			"bufferView":3,
			"componentType":5121,
			"count":3049,
			"normalized":true,
			"type":"VEC4"
		},
		{
			"bufferView":4,
			"componentType":5123,
			"count":3049,
			"normalized":true,
			"type":"VEC4"
		},
		{
			"bufferView":5,
			"componentType":5123,
			"count":12624,
			"type":"SCALAR"
		},
		{
			"bufferView":6,
			"componentType":5126,
			"count":460,
			"max":[
				0.1737639605998993,
				0.35625410079956055,
				0.35635361075401306
			],
			"min":[
				-0.18536582589149475,
				-0.3564773499965668,
				-0.35641494393348694
			],
			"type":"VEC3"
		},
		{
			"bufferView":7,
			"componentType":5126,
			"count":460,
			"type":"VEC3"
		},
		{
			"bufferView":8,
			"componentType":5126,
			"count":460,
			"type":"VEC2"
		},
		{
			"bufferView":9,
			"componentType":5121,
			"count":460,
			"normalized":true,
			"type":"VEC4"
		},
		{
			"bufferView":10,
			"componentType":5123,
			"count":460,
			"normalized":true,
			"type":"VEC4"
		},
		{
			"bufferView":11,
			"componentType":5123,
			"count":2250,
			"type":"SCALAR"
		}
	],
	"bufferViews":[
		{
			"buffer":0,
			"byteLength":36588,
			"byteOffset":0,
			"target":34962
		},
		{
			"buffer":0,
			"byteLength":36588,
			"byteOffset":36588,
			"target":34962
		},
		{
			"buffer":0,
			"byteLength":24392,
			"byteOffset":73176,
			"target":34962
		},
		{
			"buffer":0,
			"byteLength":12196,
			"byteOffset":97568,
			"target":34962
		},
		{
			"buffer":0,
			"byteLength":24392,
			"byteOffset":109764,
			"target":34962
		},
		{
			"buffer":0,
			"byteLength":25248,
			"byteOffset":134156,
			"target":34963
		},
		{
			"buffer":0,
			"byteLength":5520,
			"byteOffset":159404,
			"target":34962
		},
		{
			"buffer":0,
			"byteLength":5520,
			"byteOffset":164924,
			"target":34962
		},
		{
			"buffer":0,
			"byteLength":3680,
			"byteOffset":170444,
			"target":34962
		},
		{
			"buffer":0,
			"byteLength":1840,
			"byteOffset":174124,
			"target":34962
		},
		{
			"buffer":0,
			"byteLength":3680,
			"byteOffset":175964,
			"target":34962
		},
		{
			"buffer":0,
			"byteLength":4500,
			"byteOffset":179644,
			"target":34963
		}
	],
	"samplers":[
		{
			"magFilter":9729,
			"minFilter":9987
		}
	],
	"buffers":[
		{
			"byteLength":184144,
			"uri":"goblin_wheel.bin"
		}
	]
}
