{
	"asset":{
		"generator":"Khronos glTF Blender I/O v4.5.47",
		"version":"2.0"
	},
	"extensionsUsed":[
		"KHR_materials_specular"
	],
	"scene":0,
	"scenes":[
		{
			"name":"Scene",
			"nodes":[
				0
			]
		}
	],
	"nodes":[
		{
			"mesh":0,
			"name":"car_glass"
		}
	],
	"materials":[
		{
			"alphaMode":"BLEND",
			"doubleSided":true,
			"extensions":{
				"KHR_materials_specular":{
					"specularFactor":0
				}
			},
			"name":"car_glass",
			"pbrMetallicRoughness":{
				"baseColorFactor":[
					0.20072942972183228,
					0.20072942972183228,
					0.20072942972183228,
					0.25
				],
				"metallicFactor":0,
				"roughnessFactor":0.009999999776482582
			}
		}
	],
	"meshes":[
		{
			"name":"Mesh.008",
			"primitives":[
				{
					"attributes":{
						"POSITION":0,
						"NORMAL":1,
						"TEXCOORD_0":2,
						"COLOR_0":3,
						"COLOR_1":4
					},
					"indices":5,
					"material":0
				}
			]
		}
	],
	"accessors":[
		{
			"bufferView":0,
			"componentType":5126,
			"count":822,
			"max":[
				0.9674808979034424,
				0.7880713939666748,
				2.2624552249908447
			],
			"min":[
				-0.9623502492904663,
				0.11861404776573181,
				-2.2255678176879883
			],
			"type":"VEC3"
		},
		{
			"bufferView":1,
			"componentType":5126,
			"count":822,
			"type":"VEC3"
		},
		{
			"bufferView":2,
			"componentType":5126,
			"count":822,
			"type":"VEC2"
		},
		{
			"bufferView":3,
			"componentType":5121,
			"count":822,
			"normalized":true,
			"type":"VEC4"
		},
		{
			"bufferView":4,
			"componentType":5123,
			"count":822,
			"normalized":true,
			"type":"VEC4"
		},
		{
			"bufferView":5,
			"componentType":5123,
			"count":2454,
			"type":"SCALAR"
		}
	],
	"bufferViews":[
		{
			"buffer":0,
			"byteLength":9864,
			"byteOffset":0,
			"target":34962
		},
		{
			"buffer":0,
			"byteLength":9864,
			"byteOffset":9864,
			"target":34962
		},
		{
			"buffer":0,
			"byteLength":6576,
			"byteOffset":19728,
			"target":34962
		},
		{
			"buffer":0,
			"byteLength":3288,
			"byteOffset":26304,
			"target":34962
		},
		{
			"buffer":0,
			"byteLength":6576,
			"byteOffset":29592,
			"target":34962
		},
		{
			"buffer":0,
			"byteLength":4908,
			"byteOffset":36168,
			"target":34963
		}
	],
	"buffers":[
		{
			"byteLength":41076,
			"uri":"goblin_windows.bin"
		}
	]
}
