{
	"asset":{
		"generator":"Khronos glTF Blender I/O v4.5.47",
		"version":"2.0"
	},
	"extensionsUsed":[
		"EXT_texture_webp"
	],
	"extensionsRequired":[
		"EXT_texture_webp"
	],
	"scene":0,
	"scenes":[
		{
			"name":"Scene",
			"nodes":[
				0,
				1,
				2,
				3,
				4,
				5,
				6,
				7,
				8,
				9,
				10,
				11,
				12,
				13,
				14,
				15,
				16,
				17,
				18,
				19,
				20,
				21,
				22,
				23,
				24,
				25,
				26,
				27,
				28,
				29,
				30,
				31,
				32,
				33,
				34,
				35,
				36,
				37,
				38,
				39,
				40,
				41,
				42,
				43,
				44,
				45,
				46,
				47,
				48,
				49,
				50,
				51,
				52,
				53,
				54,
				55,
				56,
				57,
				58
			]
		}
	],
	"nodes":[
		{
			"name":"Sketchfab_model",
			"rotation":[
				-0.70710688829422,
				0,
				0,
				0.7071066498756409
			]
		},
		{
			"name":"dfa245e6156544f4af51ce5991af00f8.fbx",
			"scale":[
				0.009999999776482582,
				0.010000001639127731,
				0.010000001639127731
			]
		},
		{
			"name":"RootNode",
			"scale":[
				0.009999999776482582,
				0.010000001639127731,
				0.010000001639127731
			]
		},
		{
			"name":"Cube",
			"rotation":[
				-0.70710688829422,
				0,
				0,
				0.7071066498756409
			]
		},
		{
			"name":"Cube.001",
			"rotation":[
				-0.70710688829422,
				0,
				0,
				0.7071066498756409
			]
		},
		{
			"name":"Cube.002",
			"rotation":[
				-0.70710688829422,
				0,
				0,
				0.7071066498756409
			]
		},
		{
			"name":"Cube.003",
			"rotation":[
				-0.70710688829422,
				0,
				0,
				0.7071066498756409
			]
		},
		{
			"name":"Cube.004",
			"rotation":[
				-0.70710688829422,
				0,
				0,
				0.7071066498756409
			]
		},
		{
			"name":"Cube.005",
			"rotation":[
				-0.70710688829422,
				0,
				0,
				0.7071066498756409
			]
		},
		{
			"name":"Cube.006",
			"rotation":[
				-0.70710688829422,
				0,
				0,
				0.7071066498756409
			]
		},
		{
			"name":"Cube.007",
			"rotation":[
				-0.70710688829422,
				0,
				0,
				0.7071066498756409
			]
		},
		{
			"name":"Cube.008",
			"rotation":[
				-0.70710688829422,
				0,
				0,
				0.7071066498756409
			]
		},
		{
			"name":"Cube.009",
			"rotation":[
				-0.70710688829422,
				0,
				0,
				0.7071066498756409
			]
		},
		{
			"name":"Cube.010",
			"rotation":[
				-0.70710688829422,
				0,
				0,
				0.7071066498756409
			]
		},
		{
			"name":"Cube.011",
			"rotation":[
				-0.70710688829422,
				0,
				0,
				0.7071066498756409
			]
		},
		{
			"name":"Cube.012",
			"rotation":[
				-0.70710688829422,
				0,
				0,
				0.7071066498756409
			]
		},
		{
			"name":"Cube.013",
			"rotation":[
				-0.70710688829422,
				0,
				0,
				0.7071066498756409
			]
		},
		{
			"name":"Cube.014",
			"rotation":[
				-0.70710688829422,
				0,
				0,
				0.7071066498756409
			]
		},
		{
			"name":"Cube.015",
			"rotation":[
				-0.70710688829422,
				0,
				0,
				0.7071066498756409
			]
		},
		{
			"name":"Cube.016",
			"rotation":[
				-0.70710688829422,
				0,
				0,
				0.7071066498756409
			]
		},
		{
			"name":"Cube.017",
			"rotation":[
				-0.70710688829422,
				0,
				0,
				0.7071066498756409
			]
		},
		{
			"name":"Cube.018",
			"rotation":[
				-0.70710688829422,
				0,
				0,
				0.7071066498756409
			]
		},
		{
			"name":"Cube.019",
			"rotation":[
				-0.70710688829422,
				0,
				0,
				0.7071066498756409
			]
		},
		{
			"name":"Cube.020",
			"rotation":[
				-0.70710688829422,
				0,
				0,
				0.7071066498756409
			]
		},
		{
			"name":"Cube.021",
			"rotation":[
				-0.70710688829422,
				0,
				0,
				0.7071066498756409
			]
		},
		{
			"name":"Cube.022",
			"rotation":[
				-0.70710688829422,
				0,
				0,
				0.7071066498756409
			]
		},
		{
			"name":"Cube.023",
			"rotation":[
				-0.70710688829422,
				0,
				0,
				0.7071066498756409
			]
		},
		{
			"name":"Cube.024",
			"rotation":[
				-0.70710688829422,
				0,
				0,
				0.7071066498756409
			]
		},
		{
			"name":"Cube.025",
			"rotation":[
				-0.70710688829422,
				0,
				0,
				0.7071066498756409
			]
		},
		{
			"name":"Cube.026",
			"rotation":[
				-0.70710688829422,
				0,
				0,
				0.7071066498756409
			]
		},
		{
			"name":"Cube.027",
			"rotation":[
				-0.70710688829422,
				0,
				0,
				0.7071066498756409
			]
		},
		{
			"name":"Cube.028",
			"rotation":[
				-0.70710688829422,
				0,
				0,
				0.7071066498756409
			]
		},
		{
			"name":"Cube.029",
			"rotation":[
				-0.70710688829422,
				0,
				0,
				0.7071066498756409
			]
		},
		{
			"name":"Cube.033",
			"rotation":[
				-0.70710688829422,
				0,
				0,
				0.7071066498756409
			]
		},
		{
			"name":"Cube.034",
			"rotation":[
				-0.70710688829422,
				0,
				0,
				0.7071066498756409
			]
		},
		{
			"name":"Cube.035",
			"rotation":[
				-0.70710688829422,
				0,
				0,
				0.7071066498756409
			]
		},
		{
			"name":"Cube.036",
			"rotation":[
				-0.70710688829422,
				0,
				0,
				0.7071066498756409
			]
		},
		{
			"name":"Cube.037",
			"rotation":[
				-0.70710688829422,
				0,
				0,
				0.7071066498756409
			]
		},
		{
			"name":"Cube.038",
			"rotation":[
				-0.70710688829422,
				0,
				0,
				0.7071066498756409
			]
		},
		{
			"name":"Cube.039",
			"rotation":[
				-0.70710688829422,
				0,
				0,
				0.7071066498756409
			]
		},
		{
			"name":"Cube.040",
			"rotation":[
				-0.70710688829422,
				0,
				0,
				0.7071066498756409
			]
		},
		{
			"name":"Cube.041",
			"rotation":[
				-0.70710688829422,
				0,
				0,
				0.7071066498756409
			]
		},
		{
			"name":"Cube.042",
			"rotation":[
				-0.70710688829422,
				0,
				0,
				0.7071066498756409
			]
		},
		{
			"name":"Cube.043",
			"rotation":[
				-0.70710688829422,
				0,
				0,
				0.7071066498756409
			]
		},
		{
			"name":"Cube.044",
			"rotation":[
				-0.70710688829422,
				0,
				0,
				0.7071066498756409
			]
		},
		{
			"name":"Cube.045",
			"rotation":[
				-0.70710688829422,
				0,
				0,
				0.7071066498756409
			]
		},
		{
			"name":"Cube.046",
			"rotation":[
				-0.70710688829422,
				0,
				0,
				0.7071066498756409
			]
		},
		{
			"name":"Cube.047",
			"rotation":[
				-0.70710688829422,
				0,
				0,
				0.7071066498756409
			]
		},
		{
			"name":"Cube.048",
			"rotation":[
				-0.70710688829422,
				0,
				0,
				0.7071066498756409
			]
		},
		{
			"name":"rim_235.001",
			"rotation":[
				0,
				0.7071068286895752,
				0.7071068286895752,
				5.3385065257316455e-08
			],
			"scale":[
				1.024305820465088,
				1.024305820465088,
				1.024305820465088
			],
			"translation":[
				1.0246657133102417,
				0.3823535144329071,
				1.3000001907348633
			]
		},
		{
			"name":"tire_001_R17.001",
			"rotation":[
				0,
				-0.7071068286895752,
				-0.7071068286895752,
				5.338508302088485e-08
			],
			"scale":[
				1.2736934423446655,
				1.273693323135376,
				1.273693323135376
			],
			"translation":[
				1.0246657133102417,
				0.3823535144329071,
				1.3000001907348633
			]
		},
		{
			"mesh":0,
			"name":"tire_001_R17.001_tire_protector_0"
		},
		{
			"name":"rim_235.002",
			"rotation":[
				0,
				0.7071068286895752,
				0.7071068286895752,
				5.3385065257316455e-08
			],
			"scale":[
				1.024305820465088,
				1.024305820465088,
				1.024305820465088
			],
			"translation":[
				1.0246657133102417,
				0.3823535144329071,
				-1.5828956365585327
			]
		},
		{
			"name":"tire_001_R17.002",
			"rotation":[
				0,
				-0.7071068286895752,
				-0.7071068286895752,
				5.338508302088485e-08
			],
			"scale":[
				1.2736934423446655,
				1.273693323135376,
				1.273693323135376
			],
			"translation":[
				1.0246657133102417,
				0.3823535144329071,
				-1.5828956365585327
			]
		},
		{
			"name":"rim_235.003",
			"rotation":[
				0,
				0.7071068286895752,
				0.7071068286895752,
				5.338508302088485e-08
			],
			"translation":[
				-1.0239661931991577,
				0.3823535144329071,
				1.3000001907348633
			]
		},
		{
			"name":"tire_001_R17.003",
			"rotation":[
				0,
				-0.7071068286895752,
				-0.7071068286895752,
				5.338508302088485e-08
			],
			"scale":[
				1.2736934423446655,
				1.273693323135376,
				1.273693323135376
			],
			"translation":[
				-1.0244929790496826,
				0.3823535144329071,
				1.3000001907348633
			]
		},
		{
			"name":"tire_001_R17.004",
			"rotation":[
				0,
				-0.7071068286895752,
				-0.7071068286895752,
				5.338508302088485e-08
			],
			"scale":[
				1.2736934423446655,
				1.273693323135376,
				1.273693323135376
			],
			"translation":[
				-1.0244929790496826,
				0.3823535144329071,
				-1.5828956365585327
			]
		},
		{
			"name":"rim_235.004",
			"rotation":[
				0,
				0.7071068286895752,
				0.7071068286895752,
				5.338508302088485e-08
			],
			"translation":[
				-1.0239661931991577,
				0.3823535144329071,
				-1.5828956365585327
			]
		},
		{
			"name":"shadow",
			"rotation":[
				-0.70710688829422,
				0,
				0,
				0.7071066498756409
			],
			"scale":[
				4.4023356437683105,
				4.4023356437683105,
				4.4023356437683105
			]
		}
	],
	"materials":[
		{
			"doubleSided":true,
			"name":"tire_protector",
			"pbrMetallicRoughness":{
				"baseColorFactor":[
					0.002579319989308715,
					0.002579319989308715,
					0.002579319989308715,
					1
				],
				"metallicFactor":0,
				"roughnessFactor":0.8213358521461487
			}
		},
		{
			"doubleSided":true,
			"name":"rims",
			"pbrMetallicRoughness":{
				"baseColorFactor":[
					0,
					0,
					0,
					1
				],
				"metallicFactor":0,
				"roughnessFactor":0.4495251774787903
			}
		},
		{
			"doubleSided":true,
			"name":"chrome",
			"pbrMetallicRoughness":{
				"baseColorFactor":[
					0,
					0,
					0,
					1
				],
				"metallicFactor":0,
				"roughnessFactor":0
			}
		},
		{
			"doubleSided":true,
			"name":"rubber_tires",
			"normalTexture":{
				"index":0
			},
			"pbrMetallicRoughness":{
				"baseColorFactor":[
					0,
					0,
					0,
					1
				],
				"metallicFactor":0,
				"roughnessFactor":0.4739062190055847
			}
		}
	],
	"meshes":[
		{
			"name":"tire_001_R17.001_tire_protector_0",
			"primitives":[
				{
					"attributes":{
						"POSITION":0,
						"NORMAL":1,
						"TEXCOORD_0":2
					},
					"indices":3,
					"material":0
				},
				{
					"attributes":{
						"POSITION":4,
						"NORMAL":5,
						"TEXCOORD_0":6
					},
					"indices":7,
					"material":1
				},
				{
					"attributes":{
						"POSITION":8,
						"NORMAL":9,
						"TEXCOORD_0":10
					},
					"indices":11,
					"material":2
				},
				{
					"attributes":{
						"POSITION":12,
						"NORMAL":13,
						"TEXCOORD_0":14
					},
					"indices":15,
					"material":3
				}
			]
		}
	],
	"textures":[
		{
			"extensions":{
				"EXT_texture_webp":{
					"source":0
				}
			},
			"sampler":0
		}
	],
	"images":[
		{
			"mimeType":"image/webp",
			"name":"tire_normal",
			"uri":"tire_normal.webp"
		}
	],
	"accessors":[
		{
			"bufferView":0,
			"componentType":5126,
			"count":4369,
			"max":[
				0.1153254359960556,
				0.3824460506439209,
				0.3821568191051483
			],
			"min":[
				-0.1153254359960556,
				-0.3824460506439209,
				-0.3822683095932007
			],
			"type":"VEC3"
		},
		{
			"bufferView":1,
			"componentType":5126,
			"count":4369,
			"type":"VEC3"
		},
		{
			"bufferView":2,
			"componentType":5126,
			"count":4369,
			"type":"VEC2"
		},
		{
			"bufferView":3,
			"componentType":5123,
			"count":11610,
			"type":"SCALAR"
		},
		{
			"bufferView":4,
			"componentType":5126,
			"count":5748,
			"max":[
				0.13543444871902466,
				0.2766479551792145,
				0.2766479253768921
			],
			"min":[
				-0.11861660331487656,
				-0.27664798498153687,
				-0.27664807438850403
			],
			"type":"VEC3"
		},
		{
			"bufferView":5,
			"componentType":5126,
			"count":5748,
			"type":"VEC3"
		},
		{
			"bufferView":6,
			"componentType":5126,
			"count":5748,
			"type":"VEC2"
		},
		{
			"bufferView":7,
			"componentType":5123,
			"count":30348,
			"type":"SCALAR"
		},
		{
			"bufferView":8,
			"componentType":5126,
			"count":1355,
			"max":[
				0.1052771806716919,
				0.16247020661830902,
				0.15451836585998535
			],
			"min":[
				0.06352747231721878,
				-0.13144120573997498,
				-0.15451832115650177
			],
			"type":"VEC3"
		},
		{
			"bufferView":9,
			"componentType":5126,
			"count":1355,
			"type":"VEC3"
		},
		{
			"bufferView":10,
			"componentType":5126,
			"count":1355,
			"type":"VEC2"
		},
		{
			"bufferView":11,
			"componentType":5123,
			"count":6180,
			"type":"SCALAR"
		},
		{
			"bufferView":12,
			"componentType":5126,
			"count":14076,
			"max":[
				0.13943380117416382,
				0.3824460506439209,
				0.3821568191051483
			],
			"min":[
				-0.13943399488925934,
				-0.3824460506439209,
				-0.3822683095932007
			],
			"type":"VEC3"
		},
		{
			"bufferView":13,
			"componentType":5126,
			"count":14076,
			"type":"VEC3"
		},
		{
			"bufferView":14,
			"componentType":5126,
			"count":14076,
			"type":"VEC2"
		},
		{
			"bufferView":15,
			"componentType":5123,
			"count":36180,
			"type":"SCALAR"
		}
	],
	"bufferViews":[
		{
			"buffer":0,
			"byteLength":52428,
			"byteOffset":0,
			"target":34962
		},
		{
			"buffer":0,
			"byteLength":52428,
			"byteOffset":52428,
			"target":34962
		},
		{
			"buffer":0,
			"byteLength":34952,
			"byteOffset":104856,
			"target":34962
		},
		{
			"buffer":0,
			"byteLength":23220,
			"byteOffset":139808,
			"target":34963
		},
		{
			"buffer":0,
			"byteLength":68976,
			"byteOffset":163028,
			"target":34962
		},
		{
			"buffer":0,
			"byteLength":68976,
			"byteOffset":232004,
			"target":34962
		},
		{
			"buffer":0,
			"byteLength":45984,
			"byteOffset":300980,
			"target":34962
		},
		{
			"buffer":0,
			"byteLength":60696,
			"byteOffset":346964,
			"target":34963
		},
		{
			"buffer":0,
			"byteLength":16260,
			"byteOffset":407660,
			"target":34962
		},
		{
			"buffer":0,
			"byteLength":16260,
			"byteOffset":423920,
			"target":34962
		},
		{
			"buffer":0,
			"byteLength":10840,
			"byteOffset":440180,
			"target":34962
		},
		{
			"buffer":0,
			"byteLength":12360,
			"byteOffset":451020,
			"target":34963
		},
		{
			"buffer":0,
			"byteLength":168912,
			"byteOffset":463380,
			"target":34962
		},
		{
			"buffer":0,
			"byteLength":168912,
			"byteOffset":632292,
			"target":34962
		},
		{
			"buffer":0,
			"byteLength":112608,
			"byteOffset":801204,
			"target":34962
		},
		{
			"buffer":0,
			"byteLength":72360,
			"byteOffset":913812,
			"target":34963
		}
	],
	"samplers":[
		{
			"magFilter":9729,
			"minFilter":9987
		}
	],
	"buffers":[
		{
			"byteLength":986172,
			"uri":"concept_car_wheel.bin"
		}
	]
}
