{
	"asset":{
		"generator":"Khronos glTF Blender I/O v4.2.57",
		"version":"2.0"
	},
	"scene":0,
	"scenes":[
		{
			"name":"Scene",
			"nodes":[
				0,
				1
			]
		}
	],
	"nodes":[
		{
			"mesh":0,
			"name":"body"
		},
		{
			"mesh":1,
			"name":"windows"
		}
	],
	"materials":[
		{
			"doubleSided":true,
			"name":"Body",
			"pbrMetallicRoughness":{
				"baseColorTexture":{
					"index":0
				},
				"metallicRoughnessTexture":{
					"index":1
				}
			}
		},
		{
			"doubleSided":true,
			"name":"Optics",
			"pbrMetallicRoughness":{
				"baseColorTexture":{
					"index":2
				},
				"metallicFactor":0,
				"roughnessFactor":0.1
			}
		},
		{
			"alphaMode":"BLEND",
			"doubleSided":true,
			"name":"Glass",
			"pbrMetallicRoughness":{
				"baseColorFactor":[
					1,
					1,
					1,
					0.0
				],
				"metallicFactor": 0.5,
				"roughnessFactor":0.2
			}
		}
	],
	"meshes":[
		{
			"name":"Mesh.005",
			"primitives":[
				{
					"attributes":{
						"POSITION":0,
						"NORMAL":1,
						"TEXCOORD_0":2,
						"COLOR_0":3,
						"COLOR_1":4
					},
					"indices":5,
					"material":0
				},
				{
					"attributes":{
						"POSITION":6,
						"NORMAL":7,
						"TEXCOORD_0":8,
						"COLOR_0":9,
						"COLOR_1":10
					},
					"indices":11,
					"material":1
				}
			]
		},
		{
			"name":"Mesh.001",
			"primitives":[
				{
					"attributes":{
						"POSITION":12,
						"NORMAL":13,
						"TEXCOORD_0":14,
						"COLOR_0":15,
						"COLOR_1":16
					},
					"indices":17,
					"material":2
				}
			]
		}
	],
	"textures":[
		{
			"sampler":0,
			"source":0
		},
		{
			"sampler":0,
			"source":1
		},
		{
			"sampler":0,
			"source":2
		}
	],
	"images":[
		{
			"mimeType":"image/png",
			"name":"CoupeBlue",
			"uri":"textures/CoupeBlue.png"
		},
		{
			"mimeType":"image/png",
			"name":"CoupeMetallic-CoupeRoughness",
			"uri":"textures/CoupeMetallic-CoupeRoughness.png"
		},
		{
			"mimeType":"image/jpeg",
			"name":"Lights",
			"uri":"textures/Lights.jpg"
		}
	],
	"accessors":[
		{
			"bufferView":0,
			"componentType":5126,
			"count":4399,
			"max":[
				1.0595625638961792,
				1.0857977867126465,
				2.387274742126465
			],
			"min":[
				-1.0607963800430298,
				-0.22168350219726562,
				-2.382887125015259
			],
			"type":"VEC3"
		},
		{
			"bufferView":1,
			"componentType":5126,
			"count":4399,
			"type":"VEC3"
		},
		{
			"bufferView":2,
			"componentType":5126,
			"count":4399,
			"type":"VEC2"
		},
		{
			"bufferView":3,
			"componentType":5121,
			"count":4399,
			"normalized":true,
			"type":"VEC4"
		},
		{
			"bufferView":4,
			"componentType":5126,
			"count":4399,
			"type":"VEC3"
		},
		{
			"bufferView":5,
			"componentType":5123,
			"count":11142,
			"type":"SCALAR"
		},
		{
			"bufferView":6,
			"componentType":5126,
			"count":234,
			"max":[
				0.7826627492904663,
				0.4736120104789734,
				2.179431200027466
			],
			"min":[
				-0.8010395765304565,
				0.24657031893730164,
				-2.2451908588409424
			],
			"type":"VEC3"
		},
		{
			"bufferView":7,
			"componentType":5126,
			"count":234,
			"type":"VEC3"
		},
		{
			"bufferView":8,
			"componentType":5126,
			"count":234,
			"type":"VEC2"
		},
		{
			"bufferView":9,
			"componentType":5121,
			"count":234,
			"normalized":true,
			"type":"VEC4"
		},
		{
			"bufferView":10,
			"componentType":5126,
			"count":234,
			"type":"VEC3"
		},
		{
			"bufferView":11,
			"componentType":5123,
			"count":648,
			"type":"SCALAR"
		},
		{
			"bufferView":12,
			"componentType":5126,
			"count":128,
			"max":[
				0.84991854429245,
				1.047011375427246,
				0.8425814509391785
			],
			"min":[
				-0.8462528586387634,
				0.5634423494338989,
				-1.8747622966766357
			],
			"type":"VEC3"
		},
		{
			"bufferView":13,
			"componentType":5126,
			"count":128,
			"type":"VEC3"
		},
		{
			"bufferView":14,
			"componentType":5126,
			"count":128,
			"type":"VEC2"
		},
		{
			"bufferView":15,
			"componentType":5121,
			"count":128,
			"normalized":true,
			"type":"VEC4"
		},
		{
			"bufferView":16,
			"componentType":5126,
			"count":128,
			"type":"VEC3"
		},
		{
			"bufferView":17,
			"componentType":5123,
			"count":456,
			"type":"SCALAR"
		}
	],
	"bufferViews":[
		{
			"buffer":0,
			"byteLength":52788,
			"byteOffset":0,
			"target":34962
		},
		{
			"buffer":0,
			"byteLength":52788,
			"byteOffset":52788,
			"target":34962
		},
		{
			"buffer":0,
			"byteLength":35192,
			"byteOffset":105576,
			"target":34962
		},
		{
			"buffer":0,
			"byteLength":17596,
			"byteOffset":140768,
			"target":34962
		},
		{
			"buffer":0,
			"byteLength":52788,
			"byteOffset":158364,
			"target":34962
		},
		{
			"buffer":0,
			"byteLength":22284,
			"byteOffset":211152,
			"target":34963
		},
		{
			"buffer":0,
			"byteLength":2808,
			"byteOffset":233436,
			"target":34962
		},
		{
			"buffer":0,
			"byteLength":2808,
			"byteOffset":236244,
			"target":34962
		},
		{
			"buffer":0,
			"byteLength":1872,
			"byteOffset":239052,
			"target":34962
		},
		{
			"buffer":0,
			"byteLength":936,
			"byteOffset":240924,
			"target":34962
		},
		{
			"buffer":0,
			"byteLength":2808,
			"byteOffset":241860,
			"target":34962
		},
		{
			"buffer":0,
			"byteLength":1296,
			"byteOffset":244668,
			"target":34963
		},
		{
			"buffer":0,
			"byteLength":1536,
			"byteOffset":245964,
			"target":34962
		},
		{
			"buffer":0,
			"byteLength":1536,
			"byteOffset":247500,
			"target":34962
		},
		{
			"buffer":0,
			"byteLength":1024,
			"byteOffset":249036,
			"target":34962
		},
		{
			"buffer":0,
			"byteLength":512,
			"byteOffset":250060,
			"target":34962
		},
		{
			"buffer":0,
			"byteLength":1536,
			"byteOffset":250572,
			"target":34962
		},
		{
			"buffer":0,
			"byteLength":912,
			"byteOffset":252108,
			"target":34963
		}
	],
	"samplers":[
		{
			"magFilter":9729,
			"minFilter":9987
		}
	],
	"buffers":[
		{
			"byteLength":253020,
			"uri":"coupe.bin"
		}
	]
}
