{
	"asset":{
		"generator":"Khronos glTF Blender I/O v5.0.21",
		"version":"2.0"
	},
	"extensionsUsed":[
		"EXT_texture_webp"
	],
	"extensionsRequired":[
		"EXT_texture_webp"
	],
	"scene":0,
	"scenes":[
		{
			"name":"Scene",
			"nodes":[
				0,
				1,
				2,
				3,
				4,
				5,
				6,
				7,
				8,
				9,
				10,
				11,
				12,
				13,
				14
			]
		}
	],
	"nodes":[
		{
			"mesh":0,
			"name":"spruce1",
			"rotation":[
				0.7071068286895752,
				0,
				0,
				0.7071068286895752
			],
			"scale":[
				0.15074217319488525,
				0.15074217319488525,
				0.15074217319488525
			],
			"translation":[
				0,
				0,
				30
			]
		},
		{
			"mesh":0,
			"name":"spruce1.001",
			"rotation":[
				0.6926431059837341,
				0.1422867774963379,
				-0.1422867774963379,
				0.6926431059837341
			],
			"scale":[
				0.2740950584411621,
				0.2740950584411621,
				0.2740950286388397
			],
			"translation":[
				18,
				0,
				26
			]
		},
		{
			"mesh":0,
			"name":"spruce1.002",
			"rotation":[
				0.6926431059837341,
				0.1422867774963379,
				-0.1422867774963379,
				0.6926431655883789
			],
			"scale":[
				0.2977145314216614,
				0.2977145314216614,
				0.2977145314216614
			],
			"translation":[
				-1,
				0,
				-26
			]
		},
		{
			"mesh":0,
			"name":"spruce1.003",
			"rotation":[
				0.5560242533683777,
				-0.4368489980697632,
				0.4368489682674408,
				0.5560243725776672
			],
			"scale":[
				0.15074217319488525,
				0.15074217319488525,
				0.15074217319488525
			],
			"translation":[
				56,
				0,
				30
			]
		},
		{
			"mesh":0,
			"name":"spruce1.004",
			"rotation":[
				0.5560241937637329,
				-0.4368489682674408,
				0.4368489384651184,
				0.5560243129730225
			],
			"scale":[
				0.09686904400587082,
				0.09686904400587082,
				0.09686905145645142
			],
			"translation":[
				23,
				0,
				-28
			]
		},
		{
			"mesh":0,
			"name":"spruce1.005",
			"rotation":[
				0.5636187195777893,
				0.4270058274269104,
				-0.427005797624588,
				0.5636187195777893
			],
			"scale":[
				0.297714501619339,
				0.297714501619339,
				0.2977145314216614
			],
			"translation":[
				46,
				0,
				-28
			]
		},
		{
			"mesh":0,
			"name":"spruce1.006",
			"rotation":[
				0.1422867774963379,
				-0.6926431655883789,
				0.6926430463790894,
				0.14228679239749908
			],
			"scale":[
				0.24876171350479126,
				0.24876171350479126,
				0.24876169860363007
			],
			"translation":[
				112,
				0,
				-28
			]
		},
		{
			"mesh":0,
			"name":"spruce1.007",
			"rotation":[
				0.14228679239749908,
				-0.6926431655883789,
				0.6926431059837341,
				0.14228680729866028
			],
			"scale":[
				0.36204296350479126,
				0.36204296350479126,
				0.36204296350479126
			],
			"translation":[
				131,
				0,
				24
			]
		},
		{
			"mesh":0,
			"name":"spruce1.008",
			"rotation":[
				0.427005797624588,
				-0.5636187195777893,
				0.5636186599731445,
				0.4270058274269104
			],
			"scale":[
				0.2977145314216614,
				0.2977145314216614,
				0.2977145314216614
			],
			"translation":[
				84,
				0,
				26
			]
		},
		{
			"mesh":0,
			"name":"spruce1.009",
			"rotation":[
				0.1422867774963379,
				-0.6926431655883789,
				0.6926431059837341,
				0.14228679239749908
			],
			"scale":[
				0.24675843119621277,
				0.24675843119621277,
				0.24675843119621277
			],
			"translation":[
				-29,
				0,
				-31
			]
		},
		{
			"mesh":0,
			"name":"spruce1.010",
			"rotation":[
				0.1422867774963379,
				-0.6926431655883789,
				0.6926431059837341,
				0.14228679239749908
			],
			"scale":[
				0.38300812244415283,
				0.38300812244415283,
				0.38300809264183044
			],
			"translation":[
				-32,
				0,
				29
			]
		},
		{
			"mesh":0,
			"name":"spruce1.011",
			"rotation":[
				0.4270058572292328,
				-0.5636187791824341,
				0.5636186599731445,
				0.4270058870315552
			],
			"scale":[
				0.23481811583042145,
				0.23481811583042145,
				0.23481811583042145
			],
			"translation":[
				-79,
				0,
				26
			]
		},
		{
			"mesh":1,
			"name":"Plane",
			"scale":[
				20,
				20,
				20
			],
			"translation":[
				0,
				-0.25,
				42
			]
		},
		{
			"mesh":2,
			"name":"road"
		},
		{
			"name":"racetrack_path"
		}
	],
	"materials":[
		{
			"alphaCutoff":0.44999998807907104,
			"alphaMode":"MASK",
			"doubleSided":true,
			"name":"spruce",
			"normalTexture":{
				"index":0
			},
			"pbrMetallicRoughness":{
				"baseColorTexture":{
					"index":1
				},
				"metallicFactor":0,
				"roughnessFactor":0.9800000190734863
			}
		},
		{
			"doubleSided":true,
			"name":"grass1",
			"pbrMetallicRoughness":{
				"baseColorTexture":{
					"index":2
				},
				"metallicFactor":0
			}
		},
		{
			"doubleSided":true,
			"name":"asphalt1",
			"normalTexture":{
				"index":3
			},
			"pbrMetallicRoughness":{
				"baseColorTexture":{
					"index":4
				},
				"metallicRoughnessTexture":{
					"index":5
				}
			}
		},
		{
			"doubleSided":true,
			"name":"curb",
			"pbrMetallicRoughness":{
				"baseColorTexture":{
					"index":6
				},
				"metallicFactor":0
			}
		},
		{
			"doubleSided":true,
			"name":"concrete",
			"pbrMetallicRoughness":{
				"baseColorTexture":{
					"index":7
				},
				"metallicFactor":0
			}
		}
	],
	"meshes":[
		{
			"name":"spruce",
			"primitives":[
				{
					"attributes":{
						"POSITION":0,
						"NORMAL":1,
						"TEXCOORD_0":2
					},
					"indices":3,
					"material":0
				}
			]
		},
		{
			"name":"Plane.001",
			"primitives":[
				{
					"attributes":{
						"POSITION":4,
						"NORMAL":5,
						"TEXCOORD_0":6
					},
					"indices":7,
					"material":1
				}
			]
		},
		{
			"name":"Plane",
			"primitives":[
				{
					"attributes":{
						"POSITION":8,
						"NORMAL":9,
						"TEXCOORD_0":10
					},
					"indices":11,
					"material":2
				},
				{
					"attributes":{
						"POSITION":12,
						"NORMAL":13,
						"TEXCOORD_0":14
					},
					"indices":15,
					"material":1
				},
				{
					"attributes":{
						"POSITION":16,
						"NORMAL":17,
						"TEXCOORD_0":18
					},
					"indices":19,
					"material":3
				},
				{
					"attributes":{
						"POSITION":20,
						"NORMAL":21,
						"TEXCOORD_0":22
					},
					"indices":23,
					"material":4
				}
			]
		}
	],
	"textures":[
		{
			"extensions":{
				"EXT_texture_webp":{
					"source":0
				}
			},
			"sampler":0
		},
		{
			"extensions":{
				"EXT_texture_webp":{
					"source":1
				}
			},
			"sampler":0
		},
		{
			"extensions":{
				"EXT_texture_webp":{
					"source":2
				}
			},
			"sampler":0
		},
		{
			"extensions":{
				"EXT_texture_webp":{
					"source":3
				}
			},
			"sampler":0
		},
		{
			"extensions":{
				"EXT_texture_webp":{
					"source":4
				}
			},
			"sampler":0
		},
		{
			"extensions":{
				"EXT_texture_webp":{
					"source":5
				}
			},
			"sampler":0
		},
		{
			"extensions":{
				"EXT_texture_webp":{
					"source":6
				}
			},
			"sampler":0
		},
		{
			"extensions":{
				"EXT_texture_webp":{
					"source":7
				}
			},
			"sampler":0
		}
	],
	"images":[
		{
			"mimeType":"image/webp",
			"name":"spruce_normal",
			"uri":"spruce_normal.webp"
		},
		{
			"mimeType":"image/webp",
			"name":"spruce_basecolor",
			"uri":"spruce_basecolor.webp"
		},
		{
			"mimeType":"image/webp",
			"name":"grass1_basecolor",
			"uri":"grass1_basecolor.webp"
		},
		{
			"mimeType":"image/webp",
			"name":"asphalt1_normal",
			"uri":"asphalt1_normal.webp"
		},
		{
			"mimeType":"image/webp",
			"name":"asphalt1_basecolor",
			"uri":"asphalt1_basecolor.webp"
		},
		{
			"mimeType":"image/webp",
			"name":"asphalt1_metallic-asphalt1_roughness",
			"uri":"asphalt1_metallic-asphalt1_roughness.webp"
		},
		{
			"mimeType":"image/webp",
			"name":"curb_basecolor",
			"uri":"curb_basecolor.webp"
		},
		{
			"mimeType":"image/webp",
			"name":"concrete_basecolor",
			"uri":"concrete_basecolor.webp"
		}
	],
	"accessors":[
		{
			"bufferView":0,
			"componentType":5126,
			"count":826,
			"max":[
				47.517398834228516,
				47.51089859008789,
				0
			],
			"min":[
				-47.502201080322266,
				-47.52149963378906,
				-98.96309661865234
			],
			"type":"VEC3"
		},
		{
			"bufferView":1,
			"componentType":5126,
			"count":826,
			"type":"VEC3"
		},
		{
			"bufferView":2,
			"componentType":5126,
			"count":826,
			"type":"VEC2"
		},
		{
			"bufferView":3,
			"componentType":5123,
			"count":2352,
			"type":"SCALAR"
		},
		{
			"bufferView":4,
			"componentType":5126,
			"count":70,
			"max":[
				12.5,
				0.20000000298023224,
				11.949999809265137
			],
			"min":[
				-9,
				-0.20000000298023224,
				-1
			],
			"type":"VEC3"
		},
		{
			"bufferView":5,
			"componentType":5126,
			"count":70,
			"type":"VEC3"
		},
		{
			"bufferView":6,
			"componentType":5126,
			"count":70,
			"type":"VEC2"
		},
		{
			"bufferView":7,
			"componentType":5123,
			"count":210,
			"type":"SCALAR"
		},
		{
			"bufferView":8,
			"componentType":5126,
			"count":13450,
			"max":[
				278.0006103515625,
				4.595686435699463,
				335.9991149902344
			],
			"min":[
				-471.9712829589844,
				0.26224392652511597,
				-8.00027847290039
			],
			"type":"VEC3"
		},
		{
			"bufferView":9,
			"componentType":5126,
			"count":13450,
			"type":"VEC3"
		},
		{
			"bufferView":10,
			"componentType":5126,
			"count":13450,
			"type":"VEC2"
		},
		{
			"bufferView":11,
			"componentType":5123,
			"count":51648,
			"type":"SCALAR"
		},
		{
			"bufferView":12,
			"componentType":5126,
			"count":10763,
			"max":[
				290.00018310546875,
				4.841001033782959,
				347.9996643066406
			],
			"min":[
				-483.9666442871094,
				0.0066403779201209545,
				-20.00008201599121
			],
			"type":"VEC3"
		},
		{
			"bufferView":13,
			"componentType":5126,
			"count":10763,
			"type":"VEC3"
		},
		{
			"bufferView":14,
			"componentType":5126,
			"count":10763,
			"type":"VEC2"
		},
		{
			"bufferView":15,
			"componentType":5123,
			"count":19368,
			"type":"SCALAR"
		},
		{
			"bufferView":16,
			"componentType":5126,
			"count":8608,
			"max":[
				279.3564147949219,
				4.595686435699463,
				337.35589599609375
			],
			"min":[
				-473.3273620605469,
				0.055794358253479004,
				-9.35628890991211
			],
			"type":"VEC3"
		},
		{
			"bufferView":17,
			"componentType":5126,
			"count":8608,
			"type":"VEC3"
		},
		{
			"bufferView":18,
			"componentType":5126,
			"count":8608,
			"type":"VEC2"
		},
		{
			"bufferView":19,
			"componentType":5123,
			"count":12912,
			"type":"SCALAR"
		},
		{
			"bufferView":20,
			"componentType":5126,
			"count":12912,
			"max":[
				292.004150390625,
				6.9138336181640625,
				349.9996337890625
			],
			"min":[
				-485.9658203125,
				-0.0027771559543907642,
				-22.00197410583496
			],
			"type":"VEC3"
		},
		{
			"bufferView":21,
			"componentType":5126,
			"count":12912,
			"type":"VEC3"
		},
		{
			"bufferView":22,
			"componentType":5126,
			"count":12912,
			"type":"VEC2"
		},
		{
			"bufferView":23,
			"componentType":5123,
			"count":19368,
			"type":"SCALAR"
		}
	],
	"bufferViews":[
		{
			"buffer":0,
			"byteLength":9912,
			"byteOffset":0,
			"target":34962
		},
		{
			"buffer":0,
			"byteLength":9912,
			"byteOffset":9912,
			"target":34962
		},
		{
			"buffer":0,
			"byteLength":6608,
			"byteOffset":19824,
			"target":34962
		},
		{
			"buffer":0,
			"byteLength":4704,
			"byteOffset":26432,
			"target":34963
		},
		{
			"buffer":0,
			"byteLength":840,
			"byteOffset":31136,
			"target":34962
		},
		{
			"buffer":0,
			"byteLength":840,
			"byteOffset":31976,
			"target":34962
		},
		{
			"buffer":0,
			"byteLength":560,
			"byteOffset":32816,
			"target":34962
		},
		{
			"buffer":0,
			"byteLength":420,
			"byteOffset":33376,
			"target":34963
		},
		{
			"buffer":0,
			"byteLength":161400,
			"byteOffset":33796,
			"target":34962
		},
		{
			"buffer":0,
			"byteLength":161400,
			"byteOffset":195196,
			"target":34962
		},
		{
			"buffer":0,
			"byteLength":107600,
			"byteOffset":356596,
			"target":34962
		},
		{
			"buffer":0,
			"byteLength":103296,
			"byteOffset":464196,
			"target":34963
		},
		{
			"buffer":0,
			"byteLength":129156,
			"byteOffset":567492,
			"target":34962
		},
		{
			"buffer":0,
			"byteLength":129156,
			"byteOffset":696648,
			"target":34962
		},
		{
			"buffer":0,
			"byteLength":86104,
			"byteOffset":825804,
			"target":34962
		},
		{
			"buffer":0,
			"byteLength":38736,
			"byteOffset":911908,
			"target":34963
		},
		{
			"buffer":0,
			"byteLength":103296,
			"byteOffset":950644,
			"target":34962
		},
		{
			"buffer":0,
			"byteLength":103296,
			"byteOffset":1053940,
			"target":34962
		},
		{
			"buffer":0,
			"byteLength":68864,
			"byteOffset":1157236,
			"target":34962
		},
		{
			"buffer":0,
			"byteLength":25824,
			"byteOffset":1226100,
			"target":34963
		},
		{
			"buffer":0,
			"byteLength":154944,
			"byteOffset":1251924,
			"target":34962
		},
		{
			"buffer":0,
			"byteLength":154944,
			"byteOffset":1406868,
			"target":34962
		},
		{
			"buffer":0,
			"byteLength":103296,
			"byteOffset":1561812,
			"target":34962
		},
		{
			"buffer":0,
			"byteLength":38736,
			"byteOffset":1665108,
			"target":34963
		}
	],
	"samplers":[
		{
			"magFilter":9729,
			"minFilter":9987
		}
	],
	"buffers":[
		{
			"byteLength":1703844,
			"uri":"racetrack.bin"
		}
	]
}
