{
	"asset":{
		"generator":"Khronos glTF Blender I/O v4.5.47",
		"version":"2.0"
	},
	"extensionsUsed":[
		"EXT_texture_webp"
	],
	"extensionsRequired":[
		"EXT_texture_webp"
	],
	"scene":0,
	"scenes":[
		{
			"name":"Scene",
			"nodes":[
				0,
				1
			]
		}
	],
	"nodes":[
		{
			"mesh":0,
			"name":"road"
		},
		{
			"name":"racetrack_path"
		}
	],
	"materials":[
		{
			"doubleSided":true,
			"name":"asphalt1",
			"normalTexture":{
				"index":0
			},
			"pbrMetallicRoughness":{
				"baseColorTexture":{
					"index":1
				},
				"metallicFactor":0,
				"metallicRoughnessTexture":{
					"index":2
				}
			}
		},
		{
			"doubleSided":true,
			"name":"grass1",
			"pbrMetallicRoughness":{
				"baseColorTexture":{
					"index":3
				},
				"metallicFactor":0
			}
		}
	],
	"meshes":[
		{
			"name":"Plane",
			"primitives":[
				{
					"attributes":{
						"POSITION":0,
						"NORMAL":1,
						"TEXCOORD_0":2
					},
					"indices":3,
					"material":0
				},
				{
					"attributes":{
						"POSITION":4,
						"NORMAL":5,
						"TEXCOORD_0":6
					},
					"indices":7,
					"material":1
				}
			]
		}
	],
	"textures":[
		{
			"extensions":{
				"EXT_texture_webp":{
					"source":0
				}
			},
			"sampler":0
		},
		{
			"extensions":{
				"EXT_texture_webp":{
					"source":1
				}
			},
			"sampler":0
		},
		{
			"extensions":{
				"EXT_texture_webp":{
					"source":2
				}
			},
			"sampler":0
		},
		{
			"extensions":{
				"EXT_texture_webp":{
					"source":3
				}
			},
			"sampler":0
		}
	],
	"images":[
		{
			"mimeType":"image/webp",
			"name":"asphalt1_normal",
			"uri":"asphalt1_normal.webp"
		},
		{
			"mimeType":"image/webp",
			"name":"asphalt1_basecolor",
			"uri":"asphalt1_basecolor.webp"
		},
		{
			"mimeType":"image/webp",
			"name":"asphalt1_roughness",
			"uri":"asphalt1_roughness.webp"
		},
		{
			"mimeType":"image/webp",
			"name":"grass1_basecolor",
			"uri":"grass1_basecolor.webp"
		}
	],
	"accessors":[
		{
			"bufferView":0,
			"componentType":5126,
			"count":21528,
			"max":[
				278.2944030761719,
				0.2989523410797119,
				336.29437255859375
			],
			"min":[
				-471.4606018066406,
				-0.01933290809392929,
				-8.294387817382812
			],
			"type":"VEC3"
		},
		{
			"bufferView":1,
			"componentType":5126,
			"count":21528,
			"type":"VEC3"
		},
		{
			"bufferView":2,
			"componentType":5126,
			"count":21528,
			"type":"VEC2"
		},
		{
			"bufferView":3,
			"componentType":5123,
			"count":64320,
			"type":"SCALAR"
		},
		{
			"bufferView":4,
			"componentType":5126,
			"count":10723,
			"max":[
				290,
				0.0989532470703125,
				348
			],
			"min":[
				-483.1656494140625,
				0.09894990921020508,
				-20.000001907348633
			],
			"type":"VEC3"
		},
		{
			"bufferView":5,
			"componentType":5126,
			"count":10723,
			"type":"VEC3"
		},
		{
			"bufferView":6,
			"componentType":5126,
			"count":10723,
			"type":"VEC2"
		},
		{
			"bufferView":7,
			"componentType":5123,
			"count":19296,
			"type":"SCALAR"
		}
	],
	"bufferViews":[
		{
			"buffer":0,
			"byteLength":258336,
			"byteOffset":0,
			"target":34962
		},
		{
			"buffer":0,
			"byteLength":258336,
			"byteOffset":258336,
			"target":34962
		},
		{
			"buffer":0,
			"byteLength":172224,
			"byteOffset":516672,
			"target":34962
		},
		{
			"buffer":0,
			"byteLength":128640,
			"byteOffset":688896,
			"target":34963
		},
		{
			"buffer":0,
			"byteLength":128676,
			"byteOffset":817536,
			"target":34962
		},
		{
			"buffer":0,
			"byteLength":128676,
			"byteOffset":946212,
			"target":34962
		},
		{
			"buffer":0,
			"byteLength":85784,
			"byteOffset":1074888,
			"target":34962
		},
		{
			"buffer":0,
			"byteLength":38592,
			"byteOffset":1160672,
			"target":34963
		}
	],
	"samplers":[
		{
			"magFilter":9729,
			"minFilter":9987
		}
	],
	"buffers":[
		{
			"byteLength":1199264,
			"uri":"racetrack.bin"
		}
	]
}
