{
	"asset":{
		"generator":"Khronos glTF Blender I/O v3.6.27",
		"version":"2.0"
	},
	"scene":0,
	"scenes":[
		{
			"name":"Scene",
			"nodes":[
				2,
				3
			]
		}
	],
	"nodes":[
		{
			"name":"NurbsPath",
			"rotation":[
				0,
				0.7071068286895752,
				0,
				0.7071068286895752
			],
			"scale":[
				5.014023303985596,
				5.014023303985596,
				5.014023303985596
			]
		},
		{
			"mesh":0,
			"name":"Plane",
			"scale":[
				2,
				2,
				2
			]
		},
		{
			"children":[
				0,
				1
			],
			"name":"Track",
			"translation":[
				0,
				1,
				0
			]
		},
		{
			"name":"start",
			"translation":[
				0,
				26,
				210
			]
		}
	],
	"materials":[
		{
			"doubleSided":true,
			"name":"track",
			"pbrMetallicRoughness":{
				"baseColorTexture":{
					"index":0
				},
				"metallicFactor":0,
				"roughnessFactor":0.5
			}
		}
	],
	"meshes":[
		{
			"name":"Plane",
			"primitives":[
				{
					"attributes":{
						"POSITION":0,
						"NORMAL":1,
						"TEXCOORD_0":2
					},
					"indices":3,
					"material":0
				}
			]
		}
	],
	"textures":[
		{
			"sampler":0,
			"source":0
		}
	],
	"images":[
		{
			"mimeType":"image/png",
			"name":"track",
			"uri":"track.png"
		}
	],
	"accessors":[
		{
			"bufferView":0,
			"componentType":5126,
			"count":12960,
			"max":[
				109.67716979980469,
				12.727044105529785,
				304.4784240722656
			],
			"min":[
				-112.31868743896484,
				-0.3538069725036621,
				-105.64900970458984
			],
			"type":"VEC3"
		},
		{
			"bufferView":1,
			"componentType":5126,
			"count":12960,
			"type":"VEC3"
		},
		{
			"bufferView":2,
			"componentType":5126,
			"count":12960,
			"type":"VEC2"
		},
		{
			"bufferView":3,
			"componentType":5123,
			"count":19656,
			"type":"SCALAR"
		}
	],
	"bufferViews":[
		{
			"buffer":0,
			"byteLength":155520,
			"byteOffset":0,
			"target":34962
		},
		{
			"buffer":0,
			"byteLength":155520,
			"byteOffset":155520,
			"target":34962
		},
		{
			"buffer":0,
			"byteLength":103680,
			"byteOffset":311040,
			"target":34962
		},
		{
			"buffer":0,
			"byteLength":39312,
			"byteOffset":414720,
			"target":34963
		}
	],
	"samplers":[
		{
			"magFilter":9729,
			"minFilter":9987
		}
	],
	"buffers":[
		{
			"byteLength":454032,
			"uri":"track.bin"
		}
	]
}
