{
	"asset":{
		"generator":"Khronos glTF Blender I/O v4.5.47",
		"version":"2.0"
	},
	"extensionsUsed":[
		"KHR_materials_clearcoat",
		"KHR_materials_specular",
		"EXT_texture_webp"
	],
	"extensionsRequired":[
		"EXT_texture_webp"
	],
	"scene":0,
	"scenes":[
		{
			"name":"Scene",
			"nodes":[
				0,
				1,
				2,
				3,
				4,
				5,
				6
			]
		}
	],
	"nodes":[
		{
			"mesh":0,
			"name":"Interior_Cheetah_Black_0",
			"rotation":[
				0,
				-1,
				0,
				4.371138828673793e-08
			]
		},
		{
			"mesh":1,
			"name":"Glass_Red_Cheetah_Glass_Red_0",
			"rotation":[
				0,
				-1,
				0,
				4.371138828673793e-08
			]
		},
		{
			"mesh":2,
			"name":"Details_Cheetah_Plastic_0",
			"rotation":[
				0,
				-1,
				0,
				4.371138828673793e-08
			]
		},
		{
			"mesh":3,
			"name":"Details_Cheetah_Black_0",
			"rotation":[
				0,
				-1,
				0,
				4.371138828673793e-08
			]
		},
		{
			"mesh":4,
			"name":"Details_Cheetah_Textures_0",
			"rotation":[
				0,
				-1,
				0,
				4.371138828673793e-08
			]
		},
		{
			"mesh":5,
			"name":"Details_Cheetah_Chrome_0",
			"rotation":[
				0,
				-1,
				0,
				4.371138828673793e-08
			]
		},
		{
			"mesh":6,
			"name":"Body_Cheetah_Body_0",
			"rotation":[
				0,
				-1,
				0,
				4.371138828673793e-08
			]
		}
	],
	"materials":[
		{
			"doubleSided":true,
			"extensions":{
				"KHR_materials_specular":{
					"specularFactor":0
				}
			},
			"name":"Cheetah_Black",
			"pbrMetallicRoughness":{
				"baseColorFactor":[
					0,
					0,
					0,
					1
				],
				"metallicFactor":0,
				"roughnessFactor":0.8999999761581421
			}
		},
		{
			"alphaMode":"BLEND",
			"doubleSided":true,
			"extensions":{
				"KHR_materials_clearcoat":{
					"clearcoatFactor":0.5,
					"clearcoatRoughnessFactor":0.03999999910593033
				}
			},
			"name":"Cheetah_Glass_Red",
			"pbrMetallicRoughness":{
				"baseColorFactor":[
					0.7401062846183777,
					0,
					0,
					0.9289432168006897
				],
				"roughnessFactor":0.5
			}
		},
		{
			"doubleSided":true,
			"name":"Cheetah_Plastic",
			"pbrMetallicRoughness":{
				"baseColorFactor":[
					0.015158594585955143,
					0.015158594585955143,
					0.015158594585955143,
					1
				],
				"metallicFactor":0,
				"roughnessFactor":0.8999999761581421
			}
		},
		{
			"doubleSided":true,
			"name":"Cheetah_Textures",
			"normalTexture":{
				"index":0
			},
			"pbrMetallicRoughness":{
				"baseColorTexture":{
					"index":1
				},
				"metallicRoughnessTexture":{
					"index":2
				},
				"roughnessFactor":0.25
			}
		},
		{
			"doubleSided":true,
			"extensions":{
				"KHR_materials_specular":{
					"specularFactor":0
				}
			},
			"name":"Cheetah_Chrome",
			"pbrMetallicRoughness":{
				"baseColorFactor":[
					0.9292964935302734,
					0.9292964935302734,
					0.9292964935302734,
					1
				],
				"roughnessFactor":0.10000000149011612
			}
		},
		{
			"doubleSided":true,
			"extensions":{
				"KHR_materials_clearcoat":{
					"clearcoatRoughnessFactor":0
				}
			},
			"name":"Cheetah_Body",
			"pbrMetallicRoughness":{
				"baseColorFactor":[
					1,
					0.699999988079071,
					0,
					1
				],
				"metallicFactor":0,
				"roughnessFactor":0.05000000074505806
			}
		}
	],
	"meshes":[
		{
			"name":"Interior_Cheetah_Black_0",
			"primitives":[
				{
					"attributes":{
						"POSITION":0,
						"NORMAL":1,
						"TEXCOORD_0":2,
						"TEXCOORD_1":3
					},
					"indices":4,
					"material":0
				}
			]
		},
		{
			"name":"Glass_Red_Cheetah_Glass_Red_0",
			"primitives":[
				{
					"attributes":{
						"POSITION":5,
						"NORMAL":6,
						"TEXCOORD_0":7,
						"TEXCOORD_1":8
					},
					"indices":9,
					"material":1
				}
			]
		},
		{
			"name":"Details_Cheetah_Plastic_0",
			"primitives":[
				{
					"attributes":{
						"POSITION":10,
						"NORMAL":11,
						"TEXCOORD_0":12,
						"TEXCOORD_1":13,
						"TEXCOORD_2":14,
						"TEXCOORD_3":15,
						"TEXCOORD_4":16,
						"TEXCOORD_5":17
					},
					"indices":18,
					"material":2
				}
			]
		},
		{
			"name":"Details_Cheetah_Black_0",
			"primitives":[
				{
					"attributes":{
						"POSITION":19,
						"NORMAL":20,
						"TEXCOORD_0":21,
						"TEXCOORD_1":22,
						"TEXCOORD_2":23,
						"TEXCOORD_3":24,
						"TEXCOORD_4":25,
						"TEXCOORD_5":26
					},
					"indices":27,
					"material":0
				}
			]
		},
		{
			"name":"Details_Cheetah_Textures_0",
			"primitives":[
				{
					"attributes":{
						"POSITION":28,
						"NORMAL":29,
						"TEXCOORD_0":30,
						"TEXCOORD_1":31,
						"TEXCOORD_2":32,
						"TEXCOORD_3":33,
						"TEXCOORD_4":34,
						"TEXCOORD_5":35
					},
					"indices":36,
					"material":3
				}
			]
		},
		{
			"name":"Details_Cheetah_Chrome_0",
			"primitives":[
				{
					"attributes":{
						"POSITION":37,
						"NORMAL":38,
						"TEXCOORD_0":39,
						"TEXCOORD_1":40,
						"TEXCOORD_2":41,
						"TEXCOORD_3":42,
						"TEXCOORD_4":43,
						"TEXCOORD_5":44
					},
					"indices":45,
					"material":4
				}
			]
		},
		{
			"name":"Body_Cheetah_Body_0",
			"primitives":[
				{
					"attributes":{
						"POSITION":46,
						"NORMAL":47,
						"TEXCOORD_0":48,
						"TEXCOORD_1":49,
						"TEXCOORD_2":50,
						"TEXCOORD_3":51,
						"TEXCOORD_4":52,
						"TEXCOORD_5":53
					},
					"indices":54,
					"material":5
				}
			]
		}
	],
	"textures":[
		{
			"extensions":{
				"EXT_texture_webp":{
					"source":0
				}
			},
			"sampler":0
		},
		{
			"extensions":{
				"EXT_texture_webp":{
					"source":1
				}
			},
			"sampler":0
		},
		{
			"extensions":{
				"EXT_texture_webp":{
					"source":2
				}
			},
			"sampler":0
		}
	],
	"images":[
		{
			"mimeType":"image/webp",
			"name":"Image",
			"uri":"Image.webp"
		},
		{
			"mimeType":"image/webp",
			"name":"Image",
			"uri":"Image-1.webp"
		},
		{
			"mimeType":"image/webp",
			"name":"Image",
			"uri":"Image-2.webp"
		}
	],
	"accessors":[
		{
			"bufferView":0,
			"componentType":5126,
			"count":1745,
			"max":[
				1.2641323804855347,
				0.8179376125335693,
				2.269580125808716
			],
			"min":[
				-1.2770421504974365,
				-0.3011653423309326,
				-2.3306615352630615
			],
			"type":"VEC3"
		},
		{
			"bufferView":1,
			"componentType":5126,
			"count":1745,
			"type":"VEC3"
		},
		{
			"bufferView":2,
			"componentType":5126,
			"count":1745,
			"type":"VEC2"
		},
		{
			"bufferView":3,
			"componentType":5126,
			"count":1745,
			"type":"VEC2"
		},
		{
			"bufferView":4,
			"componentType":5123,
			"count":3303,
			"type":"SCALAR"
		},
		{
			"bufferView":5,
			"componentType":5126,
			"count":114,
			"max":[
				1.059302568435669,
				0.4581630527973175,
				-2.729219675064087
			],
			"min":[
				-1.072212815284729,
				0.3295750319957733,
				-2.8258309364318848
			],
			"type":"VEC3"
		},
		{
			"bufferView":6,
			"componentType":5126,
			"count":114,
			"type":"VEC3"
		},
		{
			"bufferView":7,
			"componentType":5126,
			"count":114,
			"type":"VEC2"
		},
		{
			"bufferView":8,
			"componentType":5126,
			"count":114,
			"type":"VEC2"
		},
		{
			"bufferView":9,
			"componentType":5123,
			"count":294,
			"type":"SCALAR"
		},
		{
			"bufferView":10,
			"componentType":5126,
			"count":4589,
			"max":[
				1.1437699794769287,
				0.81978440284729,
				2.3516054153442383
			],
			"min":[
				-1.1637929677963257,
				-0.3016394376754761,
				-2.8790903091430664
			],
			"type":"VEC3"
		},
		{
			"bufferView":11,
			"componentType":5126,
			"count":4589,
			"type":"VEC3"
		},
		{
			"bufferView":12,
			"componentType":5126,
			"count":4589,
			"type":"VEC2"
		},
		{
			"bufferView":13,
			"componentType":5126,
			"count":4589,
			"type":"VEC2"
		},
		{
			"bufferView":14,
			"componentType":5126,
			"count":4589,
			"type":"VEC2"
		},
		{
			"bufferView":15,
			"componentType":5126,
			"count":4589,
			"type":"VEC2"
		},
		{
			"bufferView":16,
			"componentType":5126,
			"count":4589,
			"type":"VEC2"
		},
		{
			"bufferView":17,
			"componentType":5126,
			"count":4589,
			"type":"VEC2"
		},
		{
			"bufferView":18,
			"componentType":5123,
			"count":11469,
			"type":"SCALAR"
		},
		{
			"bufferView":19,
			"componentType":5126,
			"count":50,
			"max":[
				0.9843777418136597,
				-0.06050950288772583,
				2.1244471073150635
			],
			"min":[
				-0.9972870945930481,
				-0.2643706202507019,
				2.0399575233459473
			],
			"type":"VEC3"
		},
		{
			"bufferView":20,
			"componentType":5126,
			"count":50,
			"type":"VEC3"
		},
		{
			"bufferView":21,
			"componentType":5126,
			"count":50,
			"type":"VEC2"
		},
		{
			"bufferView":22,
			"componentType":5126,
			"count":50,
			"type":"VEC2"
		},
		{
			"bufferView":23,
			"componentType":5126,
			"count":50,
			"type":"VEC2"
		},
		{
			"bufferView":24,
			"componentType":5126,
			"count":50,
			"type":"VEC2"
		},
		{
			"bufferView":25,
			"componentType":5126,
			"count":50,
			"type":"VEC2"
		},
		{
			"bufferView":26,
			"componentType":5126,
			"count":50,
			"type":"VEC2"
		},
		{
			"bufferView":27,
			"componentType":5123,
			"count":132,
			"type":"SCALAR"
		},
		{
			"bufferView":28,
			"componentType":5126,
			"count":537,
			"max":[
				1.0576223134994507,
				0.7935425043106079,
				2.1986026763916016
			],
			"min":[
				-1.0705320835113525,
				0.03325313329696655,
				-2.8221635818481445
			],
			"type":"VEC3"
		},
		{
			"bufferView":29,
			"componentType":5126,
			"count":537,
			"type":"VEC3"
		},
		{
			"bufferView":30,
			"componentType":5126,
			"count":537,
			"type":"VEC2"
		},
		{
			"bufferView":31,
			"componentType":5126,
			"count":537,
			"type":"VEC2"
		},
		{
			"bufferView":32,
			"componentType":5126,
			"count":537,
			"type":"VEC2"
		},
		{
			"bufferView":33,
			"componentType":5126,
			"count":537,
			"type":"VEC2"
		},
		{
			"bufferView":34,
			"componentType":5126,
			"count":537,
			"type":"VEC2"
		},
		{
			"bufferView":35,
			"componentType":5126,
			"count":537,
			"type":"VEC2"
		},
		{
			"bufferView":36,
			"componentType":5123,
			"count":957,
			"type":"SCALAR"
		},
		{
			"bufferView":37,
			"componentType":5126,
			"count":2625,
			"max":[
				1.2990573644638062,
				0.6313794851303101,
				1.9347929954528809
			],
			"min":[
				-1.3119664192199707,
				-0.15914654731750488,
				-2.8619003295898438
			],
			"type":"VEC3"
		},
		{
			"bufferView":38,
			"componentType":5126,
			"count":2625,
			"type":"VEC3"
		},
		{
			"bufferView":39,
			"componentType":5126,
			"count":2625,
			"type":"VEC2"
		},
		{
			"bufferView":40,
			"componentType":5126,
			"count":2625,
			"type":"VEC2"
		},
		{
			"bufferView":41,
			"componentType":5126,
			"count":2625,
			"type":"VEC2"
		},
		{
			"bufferView":42,
			"componentType":5126,
			"count":2625,
			"type":"VEC2"
		},
		{
			"bufferView":43,
			"componentType":5126,
			"count":2625,
			"type":"VEC2"
		},
		{
			"bufferView":44,
			"componentType":5126,
			"count":2625,
			"type":"VEC2"
		},
		{
			"bufferView":45,
			"componentType":5123,
			"count":6882,
			"type":"SCALAR"
		},
		{
			"bufferView":46,
			"componentType":5126,
			"count":7635,
			"max":[
				1.3062349557876587,
				0.8930991888046265,
				2.3900465965270996
			],
			"min":[
				-1.3191438913345337,
				-0.3016394376754761,
				-3.0423874855041504
			],
			"type":"VEC3"
		},
		{
			"bufferView":47,
			"componentType":5126,
			"count":7635,
			"type":"VEC3"
		},
		{
			"bufferView":48,
			"componentType":5126,
			"count":7635,
			"type":"VEC2"
		},
		{
			"bufferView":49,
			"componentType":5126,
			"count":7635,
			"type":"VEC2"
		},
		{
			"bufferView":50,
			"componentType":5126,
			"count":7635,
			"type":"VEC2"
		},
		{
			"bufferView":51,
			"componentType":5126,
			"count":7635,
			"type":"VEC2"
		},
		{
			"bufferView":52,
			"componentType":5126,
			"count":7635,
			"type":"VEC2"
		},
		{
			"bufferView":53,
			"componentType":5126,
			"count":7635,
			"type":"VEC2"
		},
		{
			"bufferView":54,
			"componentType":5123,
			"count":30726,
			"type":"SCALAR"
		}
	],
	"bufferViews":[
		{
			"buffer":0,
			"byteLength":20940,
			"byteOffset":0,
			"target":34962
		},
		{
			"buffer":0,
			"byteLength":20940,
			"byteOffset":20940,
			"target":34962
		},
		{
			"buffer":0,
			"byteLength":13960,
			"byteOffset":41880,
			"target":34962
		},
		{
			"buffer":0,
			"byteLength":13960,
			"byteOffset":55840,
			"target":34962
		},
		{
			"buffer":0,
			"byteLength":6606,
			"byteOffset":69800,
			"target":34963
		},
		{
			"buffer":0,
			"byteLength":1368,
			"byteOffset":76408,
			"target":34962
		},
		{
			"buffer":0,
			"byteLength":1368,
			"byteOffset":77776,
			"target":34962
		},
		{
			"buffer":0,
			"byteLength":912,
			"byteOffset":79144,
			"target":34962
		},
		{
			"buffer":0,
			"byteLength":912,
			"byteOffset":80056,
			"target":34962
		},
		{
			"buffer":0,
			"byteLength":588,
			"byteOffset":80968,
			"target":34963
		},
		{
			"buffer":0,
			"byteLength":55068,
			"byteOffset":81556,
			"target":34962
		},
		{
			"buffer":0,
			"byteLength":55068,
			"byteOffset":136624,
			"target":34962
		},
		{
			"buffer":0,
			"byteLength":36712,
			"byteOffset":191692,
			"target":34962
		},
		{
			"buffer":0,
			"byteLength":36712,
			"byteOffset":228404,
			"target":34962
		},
		{
			"buffer":0,
			"byteLength":36712,
			"byteOffset":265116,
			"target":34962
		},
		{
			"buffer":0,
			"byteLength":36712,
			"byteOffset":301828,
			"target":34962
		},
		{
			"buffer":0,
			"byteLength":36712,
			"byteOffset":338540,
			"target":34962
		},
		{
			"buffer":0,
			"byteLength":36712,
			"byteOffset":375252,
			"target":34962
		},
		{
			"buffer":0,
			"byteLength":22938,
			"byteOffset":411964,
			"target":34963
		},
		{
			"buffer":0,
			"byteLength":600,
			"byteOffset":434904,
			"target":34962
		},
		{
			"buffer":0,
			"byteLength":600,
			"byteOffset":435504,
			"target":34962
		},
		{
			"buffer":0,
			"byteLength":400,
			"byteOffset":436104,
			"target":34962
		},
		{
			"buffer":0,
			"byteLength":400,
			"byteOffset":436504,
			"target":34962
		},
		{
			"buffer":0,
			"byteLength":400,
			"byteOffset":436904,
			"target":34962
		},
		{
			"buffer":0,
			"byteLength":400,
			"byteOffset":437304,
			"target":34962
		},
		{
			"buffer":0,
			"byteLength":400,
			"byteOffset":437704,
			"target":34962
		},
		{
			"buffer":0,
			"byteLength":400,
			"byteOffset":438104,
			"target":34962
		},
		{
			"buffer":0,
			"byteLength":264,
			"byteOffset":438504,
			"target":34963
		},
		{
			"buffer":0,
			"byteLength":6444,
			"byteOffset":438768,
			"target":34962
		},
		{
			"buffer":0,
			"byteLength":6444,
			"byteOffset":445212,
			"target":34962
		},
		{
			"buffer":0,
			"byteLength":4296,
			"byteOffset":451656,
			"target":34962
		},
		{
			"buffer":0,
			"byteLength":4296,
			"byteOffset":455952,
			"target":34962
		},
		{
			"buffer":0,
			"byteLength":4296,
			"byteOffset":460248,
			"target":34962
		},
		{
			"buffer":0,
			"byteLength":4296,
			"byteOffset":464544,
			"target":34962
		},
		{
			"buffer":0,
			"byteLength":4296,
			"byteOffset":468840,
			"target":34962
		},
		{
			"buffer":0,
			"byteLength":4296,
			"byteOffset":473136,
			"target":34962
		},
		{
			"buffer":0,
			"byteLength":1914,
			"byteOffset":477432,
			"target":34963
		},
		{
			"buffer":0,
			"byteLength":31500,
			"byteOffset":479348,
			"target":34962
		},
		{
			"buffer":0,
			"byteLength":31500,
			"byteOffset":510848,
			"target":34962
		},
		{
			"buffer":0,
			"byteLength":21000,
			"byteOffset":542348,
			"target":34962
		},
		{
			"buffer":0,
			"byteLength":21000,
			"byteOffset":563348,
			"target":34962
		},
		{
			"buffer":0,
			"byteLength":21000,
			"byteOffset":584348,
			"target":34962
		},
		{
			"buffer":0,
			"byteLength":21000,
			"byteOffset":605348,
			"target":34962
		},
		{
			"buffer":0,
			"byteLength":21000,
			"byteOffset":626348,
			"target":34962
		},
		{
			"buffer":0,
			"byteLength":21000,
			"byteOffset":647348,
			"target":34962
		},
		{
			"buffer":0,
			"byteLength":13764,
			"byteOffset":668348,
			"target":34963
		},
		{
			"buffer":0,
			"byteLength":91620,
			"byteOffset":682112,
			"target":34962
		},
		{
			"buffer":0,
			"byteLength":91620,
			"byteOffset":773732,
			"target":34962
		},
		{
			"buffer":0,
			"byteLength":61080,
			"byteOffset":865352,
			"target":34962
		},
		{
			"buffer":0,
			"byteLength":61080,
			"byteOffset":926432,
			"target":34962
		},
		{
			"buffer":0,
			"byteLength":61080,
			"byteOffset":987512,
			"target":34962
		},
		{
			"buffer":0,
			"byteLength":61080,
			"byteOffset":1048592,
			"target":34962
		},
		{
			"buffer":0,
			"byteLength":61080,
			"byteOffset":1109672,
			"target":34962
		},
		{
			"buffer":0,
			"byteLength":61080,
			"byteOffset":1170752,
			"target":34962
		},
		{
			"buffer":0,
			"byteLength":61452,
			"byteOffset":1231832,
			"target":34963
		}
	],
	"samplers":[
		{
			"magFilter":9729,
			"minFilter":9987
		}
	],
	"buffers":[
		{
			"byteLength":1293284,
			"uri":"cheetah_chassis.bin"
		}
	]
}
