{
	"asset":{
		"generator":"Khronos glTF Blender I/O v4.5.47",
		"version":"2.0"
	},
	"extensionsUsed":[
		"KHR_materials_clearcoat",
		"KHR_materials_specular"
	],
	"scene":0,
	"scenes":[
		{
			"name":"Scene",
			"nodes":[
				0
			]
		}
	],
	"nodes":[
		{
			"mesh":0,
			"name":"Glass_Cheetah_Glass_0",
			"rotation":[
				0,
				-1,
				0,
				4.371138828673793e-08
			]
		}
	],
	"materials":[
		{
			"alphaMode":"BLEND",
			"doubleSided":true,
			"extensions":{
				"KHR_materials_clearcoat":{
					"clearcoatFactor":1,
					"clearcoatRoughnessFactor":0.03999999910593033
				},
				"KHR_materials_specular":{
					"specularFactor":0.5271022915840149
				}
			},
			"name":"Cheetah_Glass",
			"pbrMetallicRoughness":{
				"baseColorFactor":[
					0.11759260296821594,
					0.11759260296821594,
					0.11759260296821594,
					0.5
				],
				"metallicFactor":0,
				"roughnessFactor":0.009999999776482582
			}
		}
	],
	"meshes":[
		{
			"name":"Glass_Cheetah_Glass_0",
			"primitives":[
				{
					"attributes":{
						"POSITION":0,
						"NORMAL":1,
						"TEXCOORD_0":2,
						"TEXCOORD_1":3
					},
					"indices":4,
					"material":0
				}
			]
		}
	],
	"accessors":[
		{
			"bufferView":0,
			"componentType":5126,
			"count":287,
			"max":[
				1.0434658527374268,
				0.8148336410522461,
				2.1991491317749023
			],
			"min":[
				-1.0563747882843018,
				0.06027600169181824,
				-1.0748094320297241
			],
			"type":"VEC3"
		},
		{
			"bufferView":1,
			"componentType":5126,
			"count":287,
			"type":"VEC3"
		},
		{
			"bufferView":2,
			"componentType":5126,
			"count":287,
			"type":"VEC2"
		},
		{
			"bufferView":3,
			"componentType":5126,
			"count":287,
			"type":"VEC2"
		},
		{
			"bufferView":4,
			"componentType":5123,
			"count":978,
			"type":"SCALAR"
		}
	],
	"bufferViews":[
		{
			"buffer":0,
			"byteLength":3444,
			"byteOffset":0,
			"target":34962
		},
		{
			"buffer":0,
			"byteLength":3444,
			"byteOffset":3444,
			"target":34962
		},
		{
			"buffer":0,
			"byteLength":2296,
			"byteOffset":6888,
			"target":34962
		},
		{
			"buffer":0,
			"byteLength":2296,
			"byteOffset":9184,
			"target":34962
		},
		{
			"buffer":0,
			"byteLength":1956,
			"byteOffset":11480,
			"target":34963
		}
	],
	"buffers":[
		{
			"byteLength":13436,
			"uri":"cheetah_windows.bin"
		}
	]
}
