{
	"asset":{
		"generator":"Khronos glTF Blender I/O v4.5.47",
		"version":"2.0"
	},
	"extensionsUsed":[
		"KHR_materials_specular",
		"EXT_texture_webp"
	],
	"extensionsRequired":[
		"EXT_texture_webp"
	],
	"scene":0,
	"scenes":[
		{
			"name":"Scene",
			"nodes":[
				0
			]
		}
	],
	"nodes":[
		{
			"mesh":0,
			"name":"Wh_FL_Cheetah_Chrome_0"
		}
	],
	"materials":[
		{
			"doubleSided":true,
			"extensions":{
				"KHR_materials_specular":{
					"specularFactor":0
				}
			},
			"name":"Cheetah_Chrome",
			"pbrMetallicRoughness":{
				"baseColorFactor":[
					0.9292964935302734,
					0.9292964935302734,
					0.9292964935302734,
					1
				],
				"roughnessFactor":0.10000000149011612
			}
		},
		{
			"doubleSided":true,
			"name":"Cheetah_Textures",
			"normalTexture":{
				"index":0
			},
			"pbrMetallicRoughness":{
				"baseColorTexture":{
					"index":1
				},
				"metallicRoughnessTexture":{
					"index":2
				},
				"roughnessFactor":0.25
			}
		}
	],
	"meshes":[
		{
			"name":"Wh_FL_Cheetah_Chrome_0",
			"primitives":[
				{
					"attributes":{
						"POSITION":0,
						"NORMAL":1,
						"TEXCOORD_0":2,
						"TEXCOORD_1":3,
						"TEXCOORD_2":4,
						"TEXCOORD_3":5,
						"TEXCOORD_4":6,
						"TEXCOORD_5":7
					},
					"indices":8,
					"material":0
				},
				{
					"attributes":{
						"POSITION":9,
						"NORMAL":10,
						"TEXCOORD_0":11,
						"TEXCOORD_1":12,
						"TEXCOORD_2":13,
						"TEXCOORD_3":14,
						"TEXCOORD_4":15,
						"TEXCOORD_5":16
					},
					"indices":17,
					"material":1
				}
			]
		}
	],
	"textures":[
		{
			"extensions":{
				"EXT_texture_webp":{
					"source":0
				}
			},
			"sampler":0
		},
		{
			"extensions":{
				"EXT_texture_webp":{
					"source":1
				}
			},
			"sampler":0
		},
		{
			"extensions":{
				"EXT_texture_webp":{
					"source":2
				}
			},
			"sampler":0
		}
	],
	"images":[
		{
			"mimeType":"image/webp",
			"name":"Image",
			"uri":"Image.webp"
		},
		{
			"mimeType":"image/webp",
			"name":"Image",
			"uri":"Image-1.webp"
		},
		{
			"mimeType":"image/webp",
			"name":"Image",
			"uri":"Image-2.webp"
		}
	],
	"accessors":[
		{
			"bufferView":0,
			"componentType":5126,
			"count":2159,
			"max":[
				0.13538578152656555,
				0.3231463134288788,
				0.32323190569877625
			],
			"min":[
				-0.12569952011108398,
				-0.3230573236942291,
				-0.32297149300575256
			],
			"type":"VEC3"
		},
		{
			"bufferView":1,
			"componentType":5126,
			"count":2159,
			"type":"VEC3"
		},
		{
			"bufferView":2,
			"componentType":5126,
			"count":2159,
			"type":"VEC2"
		},
		{
			"bufferView":3,
			"componentType":5126,
			"count":2159,
			"type":"VEC2"
		},
		{
			"bufferView":4,
			"componentType":5126,
			"count":2159,
			"type":"VEC2"
		},
		{
			"bufferView":5,
			"componentType":5126,
			"count":2159,
			"type":"VEC2"
		},
		{
			"bufferView":6,
			"componentType":5126,
			"count":2159,
			"type":"VEC2"
		},
		{
			"bufferView":7,
			"componentType":5126,
			"count":2159,
			"type":"VEC2"
		},
		{
			"bufferView":8,
			"componentType":5123,
			"count":5910,
			"type":"SCALAR"
		},
		{
			"bufferView":9,
			"componentType":5126,
			"count":472,
			"max":[
				0.13574767112731934,
				0.3832237720489502,
				0.3832240402698517
			],
			"min":[
				-0.13574770092964172,
				-0.3832237720489502,
				-0.38322386145591736
			],
			"type":"VEC3"
		},
		{
			"bufferView":10,
			"componentType":5126,
			"count":472,
			"type":"VEC3"
		},
		{
			"bufferView":11,
			"componentType":5126,
			"count":472,
			"type":"VEC2"
		},
		{
			"bufferView":12,
			"componentType":5126,
			"count":472,
			"type":"VEC2"
		},
		{
			"bufferView":13,
			"componentType":5126,
			"count":472,
			"type":"VEC2"
		},
		{
			"bufferView":14,
			"componentType":5126,
			"count":472,
			"type":"VEC2"
		},
		{
			"bufferView":15,
			"componentType":5126,
			"count":472,
			"type":"VEC2"
		},
		{
			"bufferView":16,
			"componentType":5126,
			"count":472,
			"type":"VEC2"
		},
		{
			"bufferView":17,
			"componentType":5123,
			"count":1362,
			"type":"SCALAR"
		}
	],
	"bufferViews":[
		{
			"buffer":0,
			"byteLength":25908,
			"byteOffset":0,
			"target":34962
		},
		{
			"buffer":0,
			"byteLength":25908,
			"byteOffset":25908,
			"target":34962
		},
		{
			"buffer":0,
			"byteLength":17272,
			"byteOffset":51816,
			"target":34962
		},
		{
			"buffer":0,
			"byteLength":17272,
			"byteOffset":69088,
			"target":34962
		},
		{
			"buffer":0,
			"byteLength":17272,
			"byteOffset":86360,
			"target":34962
		},
		{
			"buffer":0,
			"byteLength":17272,
			"byteOffset":103632,
			"target":34962
		},
		{
			"buffer":0,
			"byteLength":17272,
			"byteOffset":120904,
			"target":34962
		},
		{
			"buffer":0,
			"byteLength":17272,
			"byteOffset":138176,
			"target":34962
		},
		{
			"buffer":0,
			"byteLength":11820,
			"byteOffset":155448,
			"target":34963
		},
		{
			"buffer":0,
			"byteLength":5664,
			"byteOffset":167268,
			"target":34962
		},
		{
			"buffer":0,
			"byteLength":5664,
			"byteOffset":172932,
			"target":34962
		},
		{
			"buffer":0,
			"byteLength":3776,
			"byteOffset":178596,
			"target":34962
		},
		{
			"buffer":0,
			"byteLength":3776,
			"byteOffset":182372,
			"target":34962
		},
		{
			"buffer":0,
			"byteLength":3776,
			"byteOffset":186148,
			"target":34962
		},
		{
			"buffer":0,
			"byteLength":3776,
			"byteOffset":189924,
			"target":34962
		},
		{
			"buffer":0,
			"byteLength":3776,
			"byteOffset":193700,
			"target":34962
		},
		{
			"buffer":0,
			"byteLength":3776,
			"byteOffset":197476,
			"target":34962
		},
		{
			"buffer":0,
			"byteLength":2724,
			"byteOffset":201252,
			"target":34963
		}
	],
	"samplers":[
		{
			"magFilter":9729,
			"minFilter":9987
		}
	],
	"buffers":[
		{
			"byteLength":203976,
			"uri":"cheetah_wheel.bin"
		}
	]
}
