{
	"asset":{
		"generator":"Khronos glTF Blender I/O v4.5.47",
		"version":"2.0"
	},
	"extensionsUsed":[
		"KHR_materials_clearcoat",
		"EXT_texture_webp"
	],
	"extensionsRequired":[
		"EXT_texture_webp"
	],
	"scene":0,
	"scenes":[
		{
			"name":"Scene",
			"nodes":[
				0
			]
		}
	],
	"nodes":[
		{
			"mesh":0,
			"name":"windows"
		}
	],
	"materials":[
		{
			"alphaMode":"BLEND",
			"doubleSided":true,
			"extensions":{
				"KHR_materials_clearcoat":{
					"clearcoatFactor":1,
					"clearcoatRoughnessFactor":0.03999999910593033
				}
			},
			"name":"windo_S",
			"pbrMetallicRoughness":{
				"baseColorTexture":{
					"index":0
				},
				"metallicFactor":0,
				"roughnessFactor":0
			}
		},
		{
			"alphaMode":"BLEND",
			"doubleSided":true,
			"extensions":{
				"KHR_materials_clearcoat":{
					"clearcoatFactor":1,
					"clearcoatRoughnessFactor":0.03999999910593033
				}
			},
			"name":"headlightglass",
			"pbrMetallicRoughness":{
				"baseColorFactor":[
					1,
					1,
					1,
					0.800000011920929
				],
				"baseColorTexture":{
					"index":1
				},
				"metallicFactor":0,
				"roughnessFactor":0
			}
		},
		{
			"alphaMode":"BLEND",
			"doubleSided":true,
			"extensions":{
				"KHR_materials_clearcoat":{
					"clearcoatFactor":1,
					"clearcoatRoughnessFactor":0.03999999910593033
				}
			},
			"name":"windo_F",
			"pbrMetallicRoughness":{
				"baseColorTexture":{
					"index":2
				},
				"metallicFactor":0,
				"roughnessFactor":0
			}
		},
		{
			"alphaMode":"BLEND",
			"doubleSided":true,
			"extensions":{
				"KHR_materials_clearcoat":{
					"clearcoatFactor":1,
					"clearcoatRoughnessFactor":0.03999999910593033
				}
			},
			"name":"windo_R",
			"pbrMetallicRoughness":{
				"baseColorTexture":{
					"index":3
				},
				"metallicFactor":0,
				"roughnessFactor":0
			}
		}
	],
	"meshes":[
		{
			"name":"Object_57",
			"primitives":[
				{
					"attributes":{
						"POSITION":0,
						"NORMAL":1,
						"TEXCOORD_0":2
					},
					"indices":3,
					"material":0
				},
				{
					"attributes":{
						"POSITION":4,
						"NORMAL":5,
						"TEXCOORD_0":6
					},
					"indices":7,
					"material":1
				},
				{
					"attributes":{
						"POSITION":8,
						"NORMAL":9,
						"TEXCOORD_0":10
					},
					"indices":11,
					"material":2
				},
				{
					"attributes":{
						"POSITION":12,
						"NORMAL":13,
						"TEXCOORD_0":14
					},
					"indices":15,
					"material":3
				}
			]
		}
	],
	"textures":[
		{
			"extensions":{
				"EXT_texture_webp":{
					"source":0
				}
			},
			"sampler":0
		},
		{
			"extensions":{
				"EXT_texture_webp":{
					"source":1
				}
			},
			"sampler":0
		},
		{
			"extensions":{
				"EXT_texture_webp":{
					"source":0
				}
			},
			"sampler":0
		},
		{
			"extensions":{
				"EXT_texture_webp":{
					"source":0
				}
			},
			"sampler":0
		}
	],
	"images":[
		{
			"mimeType":"image/webp",
			"name":"window1",
			"uri":"window1.webp"
		},
		{
			"mimeType":"image/webp",
			"name":"lights_glass",
			"uri":"lights_glass.webp"
		}
	],
	"accessors":[
		{
			"bufferView":0,
			"componentType":5126,
			"count":120,
			"max":[
				0.7209276556968689,
				0.7388661503791809,
				0.6441704630851746
			],
			"min":[
				-0.7143151164054871,
				0.4440969228744507,
				-0.947037398815155
			],
			"type":"VEC3"
		},
		{
			"bufferView":1,
			"componentType":5126,
			"count":120,
			"type":"VEC3"
		},
		{
			"bufferView":2,
			"componentType":5126,
			"count":120,
			"type":"VEC2"
		},
		{
			"bufferView":3,
			"componentType":5123,
			"count":378,
			"type":"SCALAR"
		},
		{
			"bufferView":4,
			"componentType":5126,
			"count":42,
			"max":[
				0.8403002619743347,
				0.28793567419052124,
				1.8768563270568848
			],
			"min":[
				-0.8386952877044678,
				0.13222309947013855,
				1.597154974937439
			],
			"type":"VEC3"
		},
		{
			"bufferView":5,
			"componentType":5126,
			"count":42,
			"type":"VEC3"
		},
		{
			"bufferView":6,
			"componentType":5126,
			"count":42,
			"type":"VEC2"
		},
		{
			"bufferView":7,
			"componentType":5123,
			"count":150,
			"type":"SCALAR"
		},
		{
			"bufferView":8,
			"componentType":5126,
			"count":58,
			"max":[
				0.6550982594490051,
				0.7477443814277649,
				1.3224995136260986
			],
			"min":[
				-0.6511082053184509,
				0.3292137384414673,
				0.3115052282810211
			],
			"type":"VEC3"
		},
		{
			"bufferView":9,
			"componentType":5126,
			"count":58,
			"type":"VEC3"
		},
		{
			"bufferView":10,
			"componentType":5126,
			"count":58,
			"type":"VEC2"
		},
		{
			"bufferView":11,
			"componentType":5123,
			"count":234,
			"type":"SCALAR"
		},
		{
			"bufferView":12,
			"componentType":5126,
			"count":60,
			"max":[
				0.5231065154075623,
				0.7810938954353333,
				-0.555627167224884
			],
			"min":[
				-0.5122730135917664,
				0.5815517902374268,
				-1.4021565914154053
			],
			"type":"VEC3"
		},
		{
			"bufferView":13,
			"componentType":5126,
			"count":60,
			"type":"VEC3"
		},
		{
			"bufferView":14,
			"componentType":5126,
			"count":60,
			"type":"VEC2"
		},
		{
			"bufferView":15,
			"componentType":5123,
			"count":228,
			"type":"SCALAR"
		}
	],
	"bufferViews":[
		{
			"buffer":0,
			"byteLength":1440,
			"byteOffset":0,
			"target":34962
		},
		{
			"buffer":0,
			"byteLength":1440,
			"byteOffset":1440,
			"target":34962
		},
		{
			"buffer":0,
			"byteLength":960,
			"byteOffset":2880,
			"target":34962
		},
		{
			"buffer":0,
			"byteLength":756,
			"byteOffset":3840,
			"target":34963
		},
		{
			"buffer":0,
			"byteLength":504,
			"byteOffset":4596,
			"target":34962
		},
		{
			"buffer":0,
			"byteLength":504,
			"byteOffset":5100,
			"target":34962
		},
		{
			"buffer":0,
			"byteLength":336,
			"byteOffset":5604,
			"target":34962
		},
		{
			"buffer":0,
			"byteLength":300,
			"byteOffset":5940,
			"target":34963
		},
		{
			"buffer":0,
			"byteLength":696,
			"byteOffset":6240,
			"target":34962
		},
		{
			"buffer":0,
			"byteLength":696,
			"byteOffset":6936,
			"target":34962
		},
		{
			"buffer":0,
			"byteLength":464,
			"byteOffset":7632,
			"target":34962
		},
		{
			"buffer":0,
			"byteLength":468,
			"byteOffset":8096,
			"target":34963
		},
		{
			"buffer":0,
			"byteLength":720,
			"byteOffset":8564,
			"target":34962
		},
		{
			"buffer":0,
			"byteLength":720,
			"byteOffset":9284,
			"target":34962
		},
		{
			"buffer":0,
			"byteLength":480,
			"byteOffset":10004,
			"target":34962
		},
		{
			"buffer":0,
			"byteLength":456,
			"byteOffset":10484,
			"target":34963
		}
	],
	"samplers":[
		{
			"magFilter":9729,
			"minFilter":9987
		}
	],
	"buffers":[
		{
			"byteLength":10940,
			"uri":"mclaren_f1_1993_windows.bin"
		}
	]
}
