{
	"asset":{
		"generator":"Khronos glTF Blender I/O v4.5.47",
		"version":"2.0"
	},
	"extensionsUsed":[
		"EXT_texture_webp"
	],
	"extensionsRequired":[
		"EXT_texture_webp"
	],
	"scene":0,
	"scenes":[
		{
			"name":"Scene",
			"nodes":[
				0
			]
		}
	],
	"nodes":[
		{
			"mesh":0,
			"name":"Object_33"
		}
	],
	"materials":[
		{
			"doubleSided":true,
			"name":"TireTread",
			"pbrMetallicRoughness":{
				"baseColorTexture":{
					"index":0
				},
				"metallicFactor":0,
				"roughnessFactor":0.9978591203689575
			}
		},
		{
			"doubleSided":true,
			"name":"RimMain",
			"pbrMetallicRoughness":{
				"baseColorFactor":[
					0.800000011920929,
					0.800000011920929,
					0.800000011920929,
					1
				],
				"metallicFactor":0.9193629026412964,
				"roughnessFactor":0.15153919160366058
			}
		},
		{
			"doubleSided":true,
			"name":"RimSecondary",
			"pbrMetallicRoughness":{
				"baseColorFactor":[
					0,
					0,
					0,
					1
				],
				"metallicFactor":0.7791987061500549,
				"roughnessFactor":0.04449775442481041
			}
		},
		{
			"doubleSided":true,
			"name":"RimAccent",
			"pbrMetallicRoughness":{
				"baseColorFactor":[
					1,
					0.006048775743693113,
					0.00749905314296484,
					1
				],
				"metallicFactor":0,
				"roughnessFactor":0.1263529658317566
			}
		}
	],
	"meshes":[
		{
			"name":"TiresFR_TireTread_0",
			"primitives":[
				{
					"attributes":{
						"POSITION":0,
						"NORMAL":1,
						"TEXCOORD_0":2,
						"TEXCOORD_1":3
					},
					"indices":4,
					"material":0
				},
				{
					"attributes":{
						"POSITION":5,
						"NORMAL":6,
						"TEXCOORD_0":7,
						"TEXCOORD_1":8
					},
					"indices":9,
					"material":1
				},
				{
					"attributes":{
						"POSITION":10,
						"NORMAL":11,
						"TEXCOORD_0":12,
						"TEXCOORD_1":13
					},
					"indices":14,
					"material":2
				},
				{
					"attributes":{
						"POSITION":15,
						"NORMAL":16,
						"TEXCOORD_0":17,
						"TEXCOORD_1":18
					},
					"indices":19,
					"material":3
				}
			]
		}
	],
	"textures":[
		{
			"extensions":{
				"EXT_texture_webp":{
					"source":0
				}
			},
			"sampler":0
		}
	],
	"images":[
		{
			"mimeType":"image/webp",
			"name":"tires",
			"uri":"tires.webp"
		}
	],
	"accessors":[
		{
			"bufferView":0,
			"componentType":5126,
			"count":1389,
			"max":[
				0.14586037397384644,
				0.36319297552108765,
				0.3631932735443115
			],
			"min":[
				-0.14586013555526733,
				-0.3631930351257324,
				-0.363193154335022
			],
			"type":"VEC3"
		},
		{
			"bufferView":1,
			"componentType":5126,
			"count":1389,
			"type":"VEC3"
		},
		{
			"bufferView":2,
			"componentType":5126,
			"count":1389,
			"type":"VEC2"
		},
		{
			"bufferView":3,
			"componentType":5126,
			"count":1389,
			"type":"VEC2"
		},
		{
			"bufferView":4,
			"componentType":5123,
			"count":7200,
			"type":"SCALAR"
		},
		{
			"bufferView":5,
			"componentType":5126,
			"count":2961,
			"max":[
				0.1534762978553772,
				0.3071030080318451,
				0.30710291862487793
			],
			"min":[
				-0.13400483131408691,
				-0.30710291862487793,
				-0.30710291862487793
			],
			"type":"VEC3"
		},
		{
			"bufferView":6,
			"componentType":5126,
			"count":2961,
			"type":"VEC3"
		},
		{
			"bufferView":7,
			"componentType":5126,
			"count":2961,
			"type":"VEC2"
		},
		{
			"bufferView":8,
			"componentType":5126,
			"count":2961,
			"type":"VEC2"
		},
		{
			"bufferView":9,
			"componentType":5123,
			"count":17208,
			"type":"SCALAR"
		},
		{
			"bufferView":10,
			"componentType":5126,
			"count":2792,
			"max":[
				0.16908738017082214,
				0.2993834614753723,
				0.2993835210800171
			],
			"min":[
				-0.06000804901123047,
				-0.29938337206840515,
				-0.299383282661438
			],
			"type":"VEC3"
		},
		{
			"bufferView":11,
			"componentType":5126,
			"count":2792,
			"type":"VEC3"
		},
		{
			"bufferView":12,
			"componentType":5126,
			"count":2792,
			"type":"VEC2"
		},
		{
			"bufferView":13,
			"componentType":5126,
			"count":2792,
			"type":"VEC2"
		},
		{
			"bufferView":14,
			"componentType":5123,
			"count":7410,
			"type":"SCALAR"
		},
		{
			"bufferView":15,
			"componentType":5126,
			"count":1168,
			"max":[
				0.16909024119377136,
				0.2894262671470642,
				0.2894260883331299
			],
			"min":[
				-0.057629525661468506,
				-0.28942614793777466,
				-0.28942596912384033
			],
			"type":"VEC3"
		},
		{
			"bufferView":16,
			"componentType":5126,
			"count":1168,
			"type":"VEC3"
		},
		{
			"bufferView":17,
			"componentType":5126,
			"count":1168,
			"type":"VEC2"
		},
		{
			"bufferView":18,
			"componentType":5126,
			"count":1168,
			"type":"VEC2"
		},
		{
			"bufferView":19,
			"componentType":5123,
			"count":5142,
			"type":"SCALAR"
		}
	],
	"bufferViews":[
		{
			"buffer":0,
			"byteLength":16668,
			"byteOffset":0,
			"target":34962
		},
		{
			"buffer":0,
			"byteLength":16668,
			"byteOffset":16668,
			"target":34962
		},
		{
			"buffer":0,
			"byteLength":11112,
			"byteOffset":33336,
			"target":34962
		},
		{
			"buffer":0,
			"byteLength":11112,
			"byteOffset":44448,
			"target":34962
		},
		{
			"buffer":0,
			"byteLength":14400,
			"byteOffset":55560,
			"target":34963
		},
		{
			"buffer":0,
			"byteLength":35532,
			"byteOffset":69960,
			"target":34962
		},
		{
			"buffer":0,
			"byteLength":35532,
			"byteOffset":105492,
			"target":34962
		},
		{
			"buffer":0,
			"byteLength":23688,
			"byteOffset":141024,
			"target":34962
		},
		{
			"buffer":0,
			"byteLength":23688,
			"byteOffset":164712,
			"target":34962
		},
		{
			"buffer":0,
			"byteLength":34416,
			"byteOffset":188400,
			"target":34963
		},
		{
			"buffer":0,
			"byteLength":33504,
			"byteOffset":222816,
			"target":34962
		},
		{
			"buffer":0,
			"byteLength":33504,
			"byteOffset":256320,
			"target":34962
		},
		{
			"buffer":0,
			"byteLength":22336,
			"byteOffset":289824,
			"target":34962
		},
		{
			"buffer":0,
			"byteLength":22336,
			"byteOffset":312160,
			"target":34962
		},
		{
			"buffer":0,
			"byteLength":14820,
			"byteOffset":334496,
			"target":34963
		},
		{
			"buffer":0,
			"byteLength":14016,
			"byteOffset":349316,
			"target":34962
		},
		{
			"buffer":0,
			"byteLength":14016,
			"byteOffset":363332,
			"target":34962
		},
		{
			"buffer":0,
			"byteLength":9344,
			"byteOffset":377348,
			"target":34962
		},
		{
			"buffer":0,
			"byteLength":9344,
			"byteOffset":386692,
			"target":34962
		},
		{
			"buffer":0,
			"byteLength":10284,
			"byteOffset":396036,
			"target":34963
		}
	],
	"samplers":[
		{
			"magFilter":9729,
			"minFilter":9987
		}
	],
	"buffers":[
		{
			"byteLength":406320,
			"uri":"tokii_abyss_front_wheel.bin"
		}
	]
}
