{
	"asset":{
		"generator":"Khronos glTF Blender I/O v4.5.47",
		"version":"2.0"
	},
	"extensionsUsed":[
		"EXT_texture_webp"
	],
	"extensionsRequired":[
		"EXT_texture_webp"
	],
	"scene":0,
	"scenes":[
		{
			"name":"Scene",
			"nodes":[
				0
			]
		}
	],
	"nodes":[
		{
			"mesh":0,
			"name":"Object_35"
		}
	],
	"materials":[
		{
			"doubleSided":true,
			"name":"TireTread",
			"pbrMetallicRoughness":{
				"baseColorTexture":{
					"index":0
				},
				"metallicFactor":0,
				"roughnessFactor":0.9978591203689575
			}
		},
		{
			"doubleSided":true,
			"name":"RimMain",
			"pbrMetallicRoughness":{
				"baseColorFactor":[
					0.800000011920929,
					0.800000011920929,
					0.800000011920929,
					1
				],
				"metallicFactor":0.9193629026412964,
				"roughnessFactor":0.15153919160366058
			}
		},
		{
			"doubleSided":true,
			"name":"RimSecondary",
			"pbrMetallicRoughness":{
				"baseColorFactor":[
					0,
					0,
					0,
					1
				],
				"metallicFactor":0.7791987061500549,
				"roughnessFactor":0.04449775442481041
			}
		},
		{
			"doubleSided":true,
			"name":"RimAccent",
			"pbrMetallicRoughness":{
				"baseColorFactor":[
					1,
					0.006048775743693113,
					0.00749905314296484,
					1
				],
				"metallicFactor":0,
				"roughnessFactor":0.1263529658317566
			}
		}
	],
	"meshes":[
		{
			"name":"TiresRR_TireTread_0",
			"primitives":[
				{
					"attributes":{
						"POSITION":0,
						"NORMAL":1,
						"TEXCOORD_0":2,
						"TEXCOORD_1":3
					},
					"indices":4,
					"material":0
				},
				{
					"attributes":{
						"POSITION":5,
						"NORMAL":6,
						"TEXCOORD_0":7,
						"TEXCOORD_1":8
					},
					"indices":9,
					"material":1
				},
				{
					"attributes":{
						"POSITION":10,
						"NORMAL":11,
						"TEXCOORD_0":12,
						"TEXCOORD_1":13
					},
					"indices":14,
					"material":2
				},
				{
					"attributes":{
						"POSITION":15,
						"NORMAL":16,
						"TEXCOORD_0":17,
						"TEXCOORD_1":18
					},
					"indices":19,
					"material":3
				}
			]
		}
	],
	"textures":[
		{
			"extensions":{
				"EXT_texture_webp":{
					"source":0
				}
			},
			"sampler":0
		}
	],
	"images":[
		{
			"mimeType":"image/webp",
			"name":"tires",
			"uri":"tires.webp"
		}
	],
	"accessors":[
		{
			"bufferView":0,
			"componentType":5126,
			"count":1389,
			"max":[
				0.12846869230270386,
				0.3893410563468933,
				0.38837772607803345
			],
			"min":[
				-0.2831943929195404,
				-0.38945192098617554,
				-0.39041513204574585
			],
			"type":"VEC3"
		},
		{
			"bufferView":1,
			"componentType":5126,
			"count":1389,
			"type":"VEC3"
		},
		{
			"bufferView":2,
			"componentType":5126,
			"count":1389,
			"type":"VEC2"
		},
		{
			"bufferView":3,
			"componentType":5126,
			"count":1389,
			"type":"VEC2"
		},
		{
			"bufferView":4,
			"componentType":5123,
			"count":7200,
			"type":"SCALAR"
		},
		{
			"bufferView":5,
			"componentType":5126,
			"count":1996,
			"max":[
				0.1209685206413269,
				0.29434531927108765,
				0.29365313053131104
			],
			"min":[
				-0.2647724449634552,
				-0.29455405473709106,
				-0.2952460050582886
			],
			"type":"VEC3"
		},
		{
			"bufferView":6,
			"componentType":5126,
			"count":1996,
			"type":"VEC3"
		},
		{
			"bufferView":7,
			"componentType":5126,
			"count":1996,
			"type":"VEC2"
		},
		{
			"bufferView":8,
			"componentType":5126,
			"count":1996,
			"type":"VEC2"
		},
		{
			"bufferView":9,
			"componentType":5123,
			"count":10320,
			"type":"SCALAR"
		},
		{
			"bufferView":10,
			"componentType":5126,
			"count":1622,
			"max":[
				0.1209685206413269,
				0.282875120639801,
				0.28218328952789307
			],
			"min":[
				-0.05444151908159256,
				-0.28308409452438354,
				-0.2837761640548706
			],
			"type":"VEC3"
		},
		{
			"bufferView":11,
			"componentType":5126,
			"count":1622,
			"type":"VEC3"
		},
		{
			"bufferView":12,
			"componentType":5126,
			"count":1622,
			"type":"VEC2"
		},
		{
			"bufferView":13,
			"componentType":5126,
			"count":1622,
			"type":"VEC2"
		},
		{
			"bufferView":14,
			"componentType":5123,
			"count":9282,
			"type":"SCALAR"
		},
		{
			"bufferView":15,
			"componentType":5126,
			"count":121,
			"max":[
				-0.01450706273317337,
				0.019808247685432434,
				0.01819300651550293
			],
			"min":[
				-0.04921967536211014,
				-0.01750485599040985,
				-0.019120223820209503
			],
			"type":"VEC3"
		},
		{
			"bufferView":16,
			"componentType":5126,
			"count":121,
			"type":"VEC3"
		},
		{
			"bufferView":17,
			"componentType":5126,
			"count":121,
			"type":"VEC2"
		},
		{
			"bufferView":18,
			"componentType":5126,
			"count":121,
			"type":"VEC2"
		},
		{
			"bufferView":19,
			"componentType":5123,
			"count":600,
			"type":"SCALAR"
		}
	],
	"bufferViews":[
		{
			"buffer":0,
			"byteLength":16668,
			"byteOffset":0,
			"target":34962
		},
		{
			"buffer":0,
			"byteLength":16668,
			"byteOffset":16668,
			"target":34962
		},
		{
			"buffer":0,
			"byteLength":11112,
			"byteOffset":33336,
			"target":34962
		},
		{
			"buffer":0,
			"byteLength":11112,
			"byteOffset":44448,
			"target":34962
		},
		{
			"buffer":0,
			"byteLength":14400,
			"byteOffset":55560,
			"target":34963
		},
		{
			"buffer":0,
			"byteLength":23952,
			"byteOffset":69960,
			"target":34962
		},
		{
			"buffer":0,
			"byteLength":23952,
			"byteOffset":93912,
			"target":34962
		},
		{
			"buffer":0,
			"byteLength":15968,
			"byteOffset":117864,
			"target":34962
		},
		{
			"buffer":0,
			"byteLength":15968,
			"byteOffset":133832,
			"target":34962
		},
		{
			"buffer":0,
			"byteLength":20640,
			"byteOffset":149800,
			"target":34963
		},
		{
			"buffer":0,
			"byteLength":19464,
			"byteOffset":170440,
			"target":34962
		},
		{
			"buffer":0,
			"byteLength":19464,
			"byteOffset":189904,
			"target":34962
		},
		{
			"buffer":0,
			"byteLength":12976,
			"byteOffset":209368,
			"target":34962
		},
		{
			"buffer":0,
			"byteLength":12976,
			"byteOffset":222344,
			"target":34962
		},
		{
			"buffer":0,
			"byteLength":18564,
			"byteOffset":235320,
			"target":34963
		},
		{
			"buffer":0,
			"byteLength":1452,
			"byteOffset":253884,
			"target":34962
		},
		{
			"buffer":0,
			"byteLength":1452,
			"byteOffset":255336,
			"target":34962
		},
		{
			"buffer":0,
			"byteLength":968,
			"byteOffset":256788,
			"target":34962
		},
		{
			"buffer":0,
			"byteLength":968,
			"byteOffset":257756,
			"target":34962
		},
		{
			"buffer":0,
			"byteLength":1200,
			"byteOffset":258724,
			"target":34963
		}
	],
	"samplers":[
		{
			"magFilter":9729,
			"minFilter":9987
		}
	],
	"buffers":[
		{
			"byteLength":259924,
			"uri":"tokii_abyss_rear_wheel.bin"
		}
	]
}
