{
	"asset":{
		"generator":"Khronos glTF Blender I/O v4.5.47",
		"version":"2.0"
	},
	"scene":0,
	"scenes":[
		{
			"name":"Scene",
			"nodes":[
				0
			]
		}
	],
	"nodes":[
		{
			"mesh":0,
			"name":"Object_52"
		}
	],
	"materials":[
		{
			"alphaMode":"BLEND",
			"name":"Glass",
			"pbrMetallicRoughness":{
				"baseColorFactor":[
					0.505454421043396,
					0.505454421043396,
					0.505454421043396,
					0.029908636584877968
				],
				"metallicFactor":0.8169780373573303,
				"roughnessFactor":0
			}
		}
	],
	"meshes":[
		{
			"name":"Abyss_Tokii_Glass_Glass_0",
			"primitives":[
				{
					"attributes":{
						"POSITION":0,
						"NORMAL":1,
						"TEXCOORD_0":2
					},
					"indices":3,
					"material":0
				}
			]
		}
	],
	"accessors":[
		{
			"bufferView":0,
			"componentType":5126,
			"count":1362,
			"max":[
				0.9243514537811279,
				0.8706234693527222,
				2.2564897537231445
			],
			"min":[
				-0.9243519306182861,
				0.20324179530143738,
				-0.2820282578468323
			],
			"type":"VEC3"
		},
		{
			"bufferView":1,
			"componentType":5126,
			"count":1362,
			"type":"VEC3"
		},
		{
			"bufferView":2,
			"componentType":5126,
			"count":1362,
			"type":"VEC2"
		},
		{
			"bufferView":3,
			"componentType":5123,
			"count":6912,
			"type":"SCALAR"
		}
	],
	"bufferViews":[
		{
			"buffer":0,
			"byteLength":16344,
			"byteOffset":0,
			"target":34962
		},
		{
			"buffer":0,
			"byteLength":16344,
			"byteOffset":16344,
			"target":34962
		},
		{
			"buffer":0,
			"byteLength":10896,
			"byteOffset":32688,
			"target":34962
		},
		{
			"buffer":0,
			"byteLength":13824,
			"byteOffset":43584,
			"target":34963
		}
	],
	"buffers":[
		{
			"byteLength":57408,
			"uri":"tokii_abyss_windows.bin"
		}
	]
}
