{
	"asset":{
		"generator":"Khronos glTF Blender I/O v4.5.47",
		"version":"2.0"
	},
	"extensionsUsed":[
		"KHR_materials_specular"
	],
	"scene":0,
	"scenes":[
		{
			"name":"Scene",
			"nodes":[
				0,
				1,
				2
			]
		}
	],
	"nodes":[
		{
			"mesh":0,
			"name":"M:SM_Disk_L_0000_001_SM_Disk_L_0000_MAT_Disk_M:MAT_Disk1_0.001"
		},
		{
			"mesh":1,
			"name":"M:SM_Hub_L_0000_001_SM_Hub_L_0000_MAT_Details_Hub_M:MAT_Detail"
		},
		{
			"mesh":2,
			"name":"w:Combined3DWheel_3DWheel_Front_L Instance1_Src4Combined_Wh.307"
		}
	],
	"materials":[
		{
			"doubleSided":true,
			"extensions":{
				"KHR_materials_specular":{
					"specularFactor":0.13866709172725677
				}
			},
			"name":"MMAT_Disk1",
			"pbrMetallicRoughness":{
				"roughnessFactor":0.18742914497852325
			}
		},
		{
			"doubleSided":true,
			"extensions":{
				"KHR_materials_specular":{
					"specularFactor":0.12038131803274155
				}
			},
			"name":"MMAT_Details_Hub1",
			"pbrMetallicRoughness":{
				"roughnessFactor":0.2666674852371216
			}
		},
		{
			"doubleSided":true,
			"extensions":{
				"KHR_materials_specular":{
					"specularFactor":0.19961965084075928
				}
			},
			"name":"wheel",
			"pbrMetallicRoughness":{
				"baseColorFactor":[
					0.008043279871344566,
					0.008043279871344566,
					0.008043279871344566,
					1
				],
				"metallicFactor":0,
				"roughnessFactor":0.5
			}
		}
	],
	"meshes":[
		{
			"name":"M:SM_Disk_L_0000_001_SM_Disk_L_0000_MAT_Disk_M:MAT_Disk1_0.002",
			"primitives":[
				{
					"attributes":{
						"POSITION":0,
						"NORMAL":1,
						"TEXCOORD_0":2,
						"TEXCOORD_1":3
					},
					"indices":4,
					"material":0
				}
			]
		},
		{
			"name":"M:SM_Hub_L_0000_001_SM_Hub_L_0000_MAT_Details_Hub_M:MAT_Detai",
			"primitives":[
				{
					"attributes":{
						"POSITION":5,
						"NORMAL":6,
						"TEXCOORD_0":7,
						"TEXCOORD_1":8
					},
					"indices":9,
					"material":1
				}
			]
		},
		{
			"name":"w:Combined3DWheel_3DWheel_Front_L Instance1_Src4Combined_Wh.238",
			"primitives":[
				{
					"attributes":{
						"POSITION":10,
						"NORMAL":11,
						"TEXCOORD_0":12,
						"TEXCOORD_1":13
					},
					"indices":14,
					"material":2
				}
			]
		}
	],
	"accessors":[
		{
			"bufferView":0,
			"componentType":5126,
			"count":345,
			"max":[
				0.025648292154073715,
				0.18475517630577087,
				0.1846485286951065
			],
			"min":[
				-0.01693717949092388,
				-0.18467040359973907,
				-0.18464766442775726
			],
			"type":"VEC3"
		},
		{
			"bufferView":1,
			"componentType":5126,
			"count":345,
			"type":"VEC3"
		},
		{
			"bufferView":2,
			"componentType":5126,
			"count":345,
			"type":"VEC2"
		},
		{
			"bufferView":3,
			"componentType":5126,
			"count":345,
			"type":"VEC2"
		},
		{
			"bufferView":4,
			"componentType":5123,
			"count":576,
			"type":"SCALAR"
		},
		{
			"bufferView":5,
			"componentType":5126,
			"count":2487,
			"max":[
				0.11283442378044128,
				0.26248690485954285,
				0.2634665071964264
			],
			"min":[
				-0.13424871861934662,
				-0.26400965452194214,
				-0.2626670300960541
			],
			"type":"VEC3"
		},
		{
			"bufferView":6,
			"componentType":5126,
			"count":2487,
			"type":"VEC3"
		},
		{
			"bufferView":7,
			"componentType":5126,
			"count":2487,
			"type":"VEC2"
		},
		{
			"bufferView":8,
			"componentType":5126,
			"count":2487,
			"type":"VEC2"
		},
		{
			"bufferView":9,
			"componentType":5123,
			"count":6645,
			"type":"SCALAR"
		},
		{
			"bufferView":10,
			"componentType":5126,
			"count":903,
			"max":[
				0.12009528279304504,
				0.3240596652030945,
				0.3241703510284424
			],
			"min":[
				-0.12866953015327454,
				-0.3241032660007477,
				-0.32399100065231323
			],
			"type":"VEC3"
		},
		{
			"bufferView":11,
			"componentType":5126,
			"count":903,
			"type":"VEC3"
		},
		{
			"bufferView":12,
			"componentType":5126,
			"count":903,
			"type":"VEC2"
		},
		{
			"bufferView":13,
			"componentType":5126,
			"count":903,
			"type":"VEC2"
		},
		{
			"bufferView":14,
			"componentType":5123,
			"count":3420,
			"type":"SCALAR"
		}
	],
	"bufferViews":[
		{
			"buffer":0,
			"byteLength":4140,
			"byteOffset":0,
			"target":34962
		},
		{
			"buffer":0,
			"byteLength":4140,
			"byteOffset":4140,
			"target":34962
		},
		{
			"buffer":0,
			"byteLength":2760,
			"byteOffset":8280,
			"target":34962
		},
		{
			"buffer":0,
			"byteLength":2760,
			"byteOffset":11040,
			"target":34962
		},
		{
			"buffer":0,
			"byteLength":1152,
			"byteOffset":13800,
			"target":34963
		},
		{
			"buffer":0,
			"byteLength":29844,
			"byteOffset":14952,
			"target":34962
		},
		{
			"buffer":0,
			"byteLength":29844,
			"byteOffset":44796,
			"target":34962
		},
		{
			"buffer":0,
			"byteLength":19896,
			"byteOffset":74640,
			"target":34962
		},
		{
			"buffer":0,
			"byteLength":19896,
			"byteOffset":94536,
			"target":34962
		},
		{
			"buffer":0,
			"byteLength":13290,
			"byteOffset":114432,
			"target":34963
		},
		{
			"buffer":0,
			"byteLength":10836,
			"byteOffset":127724,
			"target":34962
		},
		{
			"buffer":0,
			"byteLength":10836,
			"byteOffset":138560,
			"target":34962
		},
		{
			"buffer":0,
			"byteLength":7224,
			"byteOffset":149396,
			"target":34962
		},
		{
			"buffer":0,
			"byteLength":7224,
			"byteOffset":156620,
			"target":34962
		},
		{
			"buffer":0,
			"byteLength":6840,
			"byteOffset":163844,
			"target":34963
		}
	],
	"buffers":[
		{
			"byteLength":170684,
			"uri":"mclaren_gt_wheel.bin"
		}
	]
}
