{
	"asset":{
		"generator":"Khronos glTF Blender I/O v4.5.47",
		"version":"2.0"
	},
	"scene":0,
	"scenes":[
		{
			"name":"Scene",
			"nodes":[
				0,
				1
			]
		}
	],
	"nodes":[
		{
			"mesh":0,
			"name":"windows"
		},
		{
			"mesh":1,
			"name":"headlights_glass"
		}
	],
	"materials":[
		{
			"alphaMode":"BLEND",
			"name":"MMAT_Glass1",
			"pbrMetallicRoughness":{
				"baseColorFactor":[
					0.20674054324626923,
					0.20674054324626923,
					0.20674054324626923,
					0.800000011920929
				],
				"roughnessFactor":0.05000000074505806
			}
		}
	],
	"meshes":[
		{
			"name":"windows.002",
			"primitives":[
				{
					"attributes":{
						"POSITION":0,
						"NORMAL":1,
						"TEXCOORD_0":2,
						"TEXCOORD_1":3
					},
					"indices":4,
					"material":0
				}
			]
		},
		{
			"name":"M:SM_FrontKit_0000_001_SM_FrontKit_0000_MAT_Mclaren_GT_Base.004",
			"primitives":[
				{
					"attributes":{
						"POSITION":5,
						"NORMAL":6,
						"TEXCOORD_0":7,
						"TEXCOORD_1":8
					},
					"indices":9,
					"material":0
				}
			]
		}
	],
	"accessors":[
		{
			"bufferView":0,
			"componentType":5126,
			"count":987,
			"max":[
				0.7844499945640564,
				0.8870037794113159,
				1.3478432893753052
			],
			"min":[
				-0.7844499945640564,
				0.39140385389328003,
				-1.9657976627349854
			],
			"type":"VEC3"
		},
		{
			"bufferView":1,
			"componentType":5126,
			"count":987,
			"type":"VEC3"
		},
		{
			"bufferView":2,
			"componentType":5126,
			"count":987,
			"type":"VEC2"
		},
		{
			"bufferView":3,
			"componentType":5126,
			"count":987,
			"type":"VEC2"
		},
		{
			"bufferView":4,
			"componentType":5123,
			"count":3942,
			"type":"SCALAR"
		},
		{
			"bufferView":5,
			"componentType":5126,
			"count":433,
			"max":[
				0.8906190395355225,
				0.36984145641326904,
				2.084683656692505
			],
			"min":[
				-0.8906189203262329,
				0.2075687199831009,
				1.638689637184143
			],
			"type":"VEC3"
		},
		{
			"bufferView":6,
			"componentType":5126,
			"count":433,
			"type":"VEC3"
		},
		{
			"bufferView":7,
			"componentType":5126,
			"count":433,
			"type":"VEC2"
		},
		{
			"bufferView":8,
			"componentType":5126,
			"count":433,
			"type":"VEC2"
		},
		{
			"bufferView":9,
			"componentType":5123,
			"count":2346,
			"type":"SCALAR"
		}
	],
	"bufferViews":[
		{
			"buffer":0,
			"byteLength":11844,
			"byteOffset":0,
			"target":34962
		},
		{
			"buffer":0,
			"byteLength":11844,
			"byteOffset":11844,
			"target":34962
		},
		{
			"buffer":0,
			"byteLength":7896,
			"byteOffset":23688,
			"target":34962
		},
		{
			"buffer":0,
			"byteLength":7896,
			"byteOffset":31584,
			"target":34962
		},
		{
			"buffer":0,
			"byteLength":7884,
			"byteOffset":39480,
			"target":34963
		},
		{
			"buffer":0,
			"byteLength":5196,
			"byteOffset":47364,
			"target":34962
		},
		{
			"buffer":0,
			"byteLength":5196,
			"byteOffset":52560,
			"target":34962
		},
		{
			"buffer":0,
			"byteLength":3464,
			"byteOffset":57756,
			"target":34962
		},
		{
			"buffer":0,
			"byteLength":3464,
			"byteOffset":61220,
			"target":34962
		},
		{
			"buffer":0,
			"byteLength":4692,
			"byteOffset":64684,
			"target":34963
		}
	],
	"buffers":[
		{
			"byteLength":69376,
			"uri":"mclaren_gt_windows.bin"
		}
	]
}
