{
    "asset" : {
        "generator" : "Khronos glTF Blender I/O v1.7.33",
        "version" : "2.0"
    },
    "scene" : 0,
    "scenes" : [
        {
            "name" : "Scene",
            "nodes" : [
                0,
                1
            ]
        }
    ],
    "nodes" : [
        {
            "mesh" : 0,
            "name" : "Porsche911_chassis"
        },
        {
            "mesh" : 1,
            "name" : "Porsche911_glass"
        }
    ],
    "materials" : [
        {
            "alphaCutoff" : 0.5,
            "alphaMode" : "MASK",
            "doubleSided" : true,
            "name" : "Porsche911",
            "normalTexture" : {
                "index" : 0
            },
            "pbrMetallicRoughness" : {
                "baseColorTexture" : {
                    "index" : 1
                },
                "metallicRoughnessTexture" : {
                    "index" : 2
                }
            }
        },
        {
            "alphaMode" : "BLEND",
            "doubleSided" : true,
            "name" : "Porsche911_Windows",
            "normalTexture" : {
                "index" : 3
            },
            "pbrMetallicRoughness" : {
                "baseColorFactor" : [
                    1,
                    1,
                    1,
                    1
                ],
                "baseColorTexture" : {
                    "index" : 4
                },
                "metallicRoughnessTexture" : {
                    "index" : 5
                }
            }
        }
    ],
    "meshes" : [
        {
            "name" : "Porsche911_SP.002",
            "primitives" : [
                {
                    "attributes" : {
                        "POSITION" : 0,
                        "NORMAL" : 1,
                        "TEXCOORD_0" : 2
                    },
                    "indices" : 3,
                    "material" : 0
                }
            ]
        },
        {
            "name" : "Porsche911_SP.001",
            "primitives" : [
                {
                    "attributes" : {
                        "POSITION" : 4,
                        "NORMAL" : 5,
                        "TEXCOORD_0" : 6
                    },
                    "indices" : 7,
                    "material" : 1
                }
            ]
        }
    ],
    "textures" : [
        {
            "sampler" : 0,
            "source" : 0
        },
        {
            "sampler" : 0,
            "source" : 1
        },
        {
            "sampler" : 0,
            "source" : 2
        },
        {
            "sampler" : 0,
            "source" : 0
        },
        {
            "sampler" : 0,
            "source" : 1
        },
        {
            "sampler" : 0,
            "source" : 2
        }
    ],
    "images" : [
        {
            "mimeType" : "image/png",
            "name" : "T_Porsche911_N",
            "uri" : "T_Porsche911_N.png"
        },
        {
            "mimeType" : "image/png",
            "name" : "T_Porsche911_BC",
            "uri" : "T_Porsche911_BC.png"
        },
        {
            "mimeType" : "image/png",
            "name" : "T_Porsche911_M-T_Porsche911_R",
            "uri" : "T_Porsche911_M-T_Porsche911_R.png"
        }
    ],
    "accessors" : [
        {
            "bufferView" : 0,
            "componentType" : 5126,
            "count" : 10469,
            "max" : [
                0.8996734023094177,
                1.3397706747055054,
                2.228091239929199
            ],
            "min" : [
                -0.8996734023094177,
                0.09957519173622131,
                -2.191560983657837
            ],
            "type" : "VEC3"
        },
        {
            "bufferView" : 1,
            "componentType" : 5126,
            "count" : 10469,
            "type" : "VEC3"
        },
        {
            "bufferView" : 2,
            "componentType" : 5126,
            "count" : 10469,
            "type" : "VEC2"
        },
        {
            "bufferView" : 3,
            "componentType" : 5123,
            "count" : 45141,
            "type" : "SCALAR"
        },
        {
            "bufferView" : 4,
            "componentType" : 5126,
            "count" : 302,
            "max" : [
                0.7162943482398987,
                1.295880675315857,
                2.0103211402893066
            ],
            "min" : [
                -0.7162943482398987,
                0.5970259308815002,
                -1.4147005081176758
            ],
            "type" : "VEC3"
        },
        {
            "bufferView" : 5,
            "componentType" : 5126,
            "count" : 302,
            "type" : "VEC3"
        },
        {
            "bufferView" : 6,
            "componentType" : 5126,
            "count" : 302,
            "type" : "VEC2"
        },
        {
            "bufferView" : 7,
            "componentType" : 5123,
            "count" : 1368,
            "type" : "SCALAR"
        }
    ],
    "bufferViews" : [
        {
            "buffer" : 0,
            "byteLength" : 125628,
            "byteOffset" : 0
        },
        {
            "buffer" : 0,
            "byteLength" : 125628,
            "byteOffset" : 125628
        },
        {
            "buffer" : 0,
            "byteLength" : 83752,
            "byteOffset" : 251256
        },
        {
            "buffer" : 0,
            "byteLength" : 90282,
            "byteOffset" : 335008
        },
        {
            "buffer" : 0,
            "byteLength" : 3624,
            "byteOffset" : 425292
        },
        {
            "buffer" : 0,
            "byteLength" : 3624,
            "byteOffset" : 428916
        },
        {
            "buffer" : 0,
            "byteLength" : 2416,
            "byteOffset" : 432540
        },
        {
            "buffer" : 0,
            "byteLength" : 2736,
            "byteOffset" : 434956
        }
    ],
    "samplers" : [
        {
            "magFilter" : 9729,
            "minFilter" : 9987
        }
    ],
    "buffers" : [
        {
            "byteLength" : 437692,
            "uri" : "porsche_911.bin"
        }
    ]
}
