{
    "asset" : {
        "generator" : "Khronos glTF Blender I/O v1.7.33",
        "version" : "2.0"
    },
    "scene" : 0,
    "scenes" : [
        {
            "name" : "Scene",
            "nodes" : [
                0
            ]
        }
    ],
    "nodes" : [
        {
            "mesh" : 0,
            "name" : "Porsche911_Wheel_FL"
        }
    ],
    "materials" : [
        {
            "alphaCutoff" : 0.5,
            "alphaMode" : "MASK",
            "doubleSided" : true,
            "name" : "Porsche911",
            "normalTexture" : {
                "index" : 0
            },
            "pbrMetallicRoughness" : {
                "baseColorTexture" : {
                    "index" : 1
                },
                "metallicRoughnessTexture" : {
                    "index" : 2
                }
            }
        }
    ],
    "meshes" : [
        {
            "name" : "Porsche911_SP.003",
            "primitives" : [
                {
                    "attributes" : {
                        "POSITION" : 0,
                        "NORMAL" : 1,
                        "TEXCOORD_0" : 2
                    },
                    "indices" : 3,
                    "material" : 0
                }
            ]
        }
    ],
    "textures" : [
        {
            "sampler" : 0,
            "source" : 0
        },
        {
            "sampler" : 0,
            "source" : 1
        },
        {
            "sampler" : 0,
            "source" : 2
        }
    ],
    "images" : [
        {
            "mimeType" : "image/png",
            "name" : "T_Porsche911_N",
            "uri" : "T_Porsche911_N.png"
        },
        {
            "mimeType" : "image/png",
            "name" : "T_Porsche911_BC",
            "uri" : "T_Porsche911_BC.png"
        },
        {
            "mimeType" : "image/png",
            "name" : "T_Porsche911_M-T_Porsche911_R",
            "uri" : "T_Porsche911_M-T_Porsche911_R.png"
        }
    ],
    "accessors" : [
        {
            "bufferView" : 0,
            "componentType" : 5126,
            "count" : 1107,
            "max" : [
                0.12435976415872574,
                0.341208815574646,
                0.3416537642478943
            ],
            "min" : [
                -0.07236739248037338,
                -0.3408912122249603,
                -0.3404455780982971
            ],
            "type" : "VEC3"
        },
        {
            "bufferView" : 1,
            "componentType" : 5126,
            "count" : 1107,
            "type" : "VEC3"
        },
        {
            "bufferView" : 2,
            "componentType" : 5126,
            "count" : 1107,
            "type" : "VEC2"
        },
        {
            "bufferView" : 3,
            "componentType" : 5123,
            "count" : 5040,
            "type" : "SCALAR"
        }
    ],
    "bufferViews" : [
        {
            "buffer" : 0,
            "byteLength" : 13284,
            "byteOffset" : 0
        },
        {
            "buffer" : 0,
            "byteLength" : 13284,
            "byteOffset" : 13284
        },
        {
            "buffer" : 0,
            "byteLength" : 8856,
            "byteOffset" : 26568
        },
        {
            "buffer" : 0,
            "byteLength" : 10080,
            "byteOffset" : 35424
        }
    ],
    "samplers" : [
        {
            "magFilter" : 9729,
            "minFilter" : 9987
        }
    ],
    "buffers" : [
        {
            "byteLength" : 45504,
            "uri" : "wheel.bin"
        }
    ]
}
