# Blender 4.2.0
# www.blender.org
o Cylinder
v -0.081994 -0.057820 -0.215788
v 0.078732 -0.000000 -0.223226
v -0.150000 0.000000 -0.400000
v 0.150000 -0.000000 -0.400000
v -0.150000 -0.103528 -0.386370
v 0.150000 -0.103528 -0.386370
v -0.150000 -0.200000 -0.346410
v 0.150000 -0.200000 -0.346410
v -0.150000 -0.282843 -0.282843
v 0.150000 -0.282843 -0.282843
v -0.150000 -0.346410 -0.200000
v 0.150000 -0.346410 -0.200000
v -0.150000 -0.386370 -0.103528
v 0.150000 -0.386370 -0.103528
v -0.150000 -0.400000 0.000000
v 0.150000 -0.400000 0.000000
v -0.150000 -0.386370 0.103528
v 0.150000 -0.386370 0.103528
v -0.150000 -0.346410 0.200000
v 0.150000 -0.346410 0.200000
v -0.150000 -0.282843 0.282843
v 0.150000 -0.282843 0.282843
v -0.150000 -0.200000 0.346410
v 0.150000 -0.200000 0.346410
v -0.150000 -0.103528 0.386370
v 0.150000 -0.103528 0.386370
v -0.150000 0.000000 0.400000
v 0.150000 -0.000000 0.400000
v -0.150000 0.103528 0.386370
v 0.150000 0.103528 0.386370
v -0.150000 0.200000 0.346410
v 0.150000 0.200000 0.346410
v -0.150000 0.282843 0.282843
v 0.150000 0.282843 0.282843
v -0.150000 0.346410 0.200000
v 0.150000 0.346410 0.200000
v -0.150000 0.386370 0.103528
v 0.150000 0.386370 0.103528
v -0.150000 0.400000 0.000000
v 0.150000 0.400000 0.000000
v -0.150000 0.386370 -0.103528
v 0.150000 0.386370 -0.103528
v -0.150000 0.346410 -0.200000
v 0.150000 0.346410 -0.200000
v -0.150000 0.282843 -0.282843
v 0.150000 0.282843 -0.282843
v -0.150000 0.200000 -0.346410
v 0.150000 0.200000 -0.346410
v -0.150000 0.103528 -0.386370
v 0.150000 0.103528 -0.386370
v -0.150000 -0.057820 -0.215788
v 0.150000 -0.000000 -0.223226
v -0.150000 0.000000 -0.223400
v -0.150000 -0.111700 -0.193470
v -0.150000 -0.157967 -0.157967
v -0.150000 -0.193470 -0.111700
v -0.150000 -0.215788 -0.057820
v -0.150000 -0.223400 -0.000000
v -0.150000 -0.215788 0.057820
v -0.150000 -0.193470 0.111700
v -0.150000 -0.157967 0.157967
v -0.150000 -0.111700 0.193470
v -0.150000 -0.057820 0.215788
v -0.150000 0.000000 0.223400
v -0.150000 0.057820 0.215788
v -0.150000 0.111700 0.193470
v -0.150000 0.157967 0.157967
v -0.150000 0.193470 0.111700
v -0.150000 0.215788 0.057820
v -0.150000 0.223400 -0.000000
v -0.150000 0.215788 -0.057820
v -0.150000 0.193470 -0.111700
v -0.150000 0.157967 -0.157967
v -0.150000 0.111700 -0.193470
v -0.150000 0.057820 -0.215788
v -0.081994 -0.000000 -0.000000
v -0.081994 -0.000000 -0.223400
v -0.081994 -0.111700 -0.193470
v -0.081994 -0.157967 -0.157967
v -0.081994 -0.193470 -0.111700
v -0.081994 -0.215788 -0.057820
v -0.081994 -0.223400 -0.000000
v -0.081994 -0.215788 0.057820
v -0.081994 -0.193470 0.111700
v -0.081994 -0.157967 0.157967
v -0.081994 -0.111700 0.193470
v -0.081994 -0.057820 0.215788
v -0.081994 -0.000000 0.223400
v -0.081994 0.057820 0.215788
v -0.081994 0.111700 0.193470
v -0.081994 0.157967 0.157967
v -0.081994 0.193470 0.111700
v -0.081994 0.215788 0.057820
v -0.081994 0.223400 -0.000000
v -0.081994 0.215788 -0.057820
v -0.081994 0.193470 -0.111700
v -0.081994 0.157967 -0.157967
v -0.081994 0.111700 -0.193470
v -0.081994 0.057820 -0.215788
v 0.150000 -0.057775 -0.215620
v 0.150000 -0.111613 -0.193320
v 0.150000 -0.157845 -0.157845
v 0.150000 -0.193320 -0.111613
v 0.150000 -0.215620 -0.057775
v 0.150000 -0.223226 -0.000000
v 0.150000 -0.215620 0.057775
v 0.150000 -0.193320 0.111613
v 0.150000 -0.157845 0.157845
v 0.150000 -0.111613 0.193320
v 0.150000 -0.057775 0.215620
v 0.150000 -0.000000 0.223226
v 0.150000 0.057775 0.215620
v 0.150000 0.111613 0.193320
v 0.150000 0.157845 0.157845
v 0.150000 0.193320 0.111613
v 0.150000 0.215620 0.057775
v 0.150000 0.223226 -0.000000
v 0.150000 0.215620 -0.057775
v 0.150000 0.193320 -0.111613
v 0.150000 0.157845 -0.157845
v 0.150000 0.111613 -0.193320
v 0.150000 0.057775 -0.215620
v 0.078732 -0.000000 -0.000000
v 0.078732 -0.057775 -0.215620
v 0.078732 -0.111613 -0.193320
v 0.078732 -0.157845 -0.157845
v 0.078732 -0.193320 -0.111613
v 0.078732 -0.215620 -0.057775
v 0.078732 -0.223226 -0.000000
v 0.078732 -0.215620 0.057775
v 0.078732 -0.193320 0.111613
v 0.078732 -0.157845 0.157845
v 0.078732 -0.111613 0.193320
v 0.078732 -0.057775 0.215620
v 0.078732 -0.000000 0.223226
v 0.078732 0.057775 0.215620
v 0.078732 0.111613 0.193320
v 0.078732 0.157845 0.157845
v 0.078732 0.193320 0.111613
v 0.078732 0.215620 0.057775
v 0.078732 0.223226 -0.000000
v 0.078732 0.215620 -0.057775
v 0.078732 0.193320 -0.111613
v 0.078732 0.157845 -0.157845
v 0.078732 0.111613 -0.193320
v 0.078732 0.057775 -0.215620
v -0.150000 0.000000 -0.400000
v -0.150000 -0.103528 -0.386370
v 0.150000 -0.103528 -0.386370
v 0.150000 -0.000000 -0.400000
v -0.150000 -0.200000 -0.346410
v 0.150000 -0.200000 -0.346410
v -0.150000 -0.282843 -0.282843
v 0.150000 -0.282843 -0.282843
v -0.150000 -0.346410 -0.200000
v 0.150000 -0.346410 -0.200000
v -0.150000 -0.386370 -0.103528
v 0.150000 -0.386370 -0.103528
v -0.150000 -0.400000 0.000000
v 0.150000 -0.400000 0.000000
v -0.150000 -0.386370 0.103528
v 0.150000 -0.386370 0.103528
v -0.150000 -0.346410 0.200000
v 0.150000 -0.346410 0.200000
v -0.150000 -0.282843 0.282843
v 0.150000 -0.282843 0.282843
v -0.150000 -0.200000 0.346410
v 0.150000 -0.200000 0.346410
v -0.150000 -0.103528 0.386370
v 0.150000 -0.103528 0.386370
v -0.150000 0.000000 0.400000
v 0.150000 -0.000000 0.400000
v -0.150000 0.103528 0.386370
v 0.150000 0.103528 0.386370
v -0.150000 0.200000 0.346410
v 0.150000 0.200000 0.346410
v -0.150000 0.282843 0.282843
v 0.150000 0.282843 0.282843
v -0.150000 0.346410 0.200000
v 0.150000 0.346410 0.200000
v -0.150000 0.386370 0.103528
v 0.150000 0.386370 0.103528
v -0.150000 0.400000 0.000000
v 0.150000 0.400000 0.000000
v -0.150000 0.386370 -0.103528
v 0.150000 0.386370 -0.103528
v -0.150000 0.346410 -0.200000
v 0.150000 0.346410 -0.200000
v -0.150000 0.282843 -0.282843
v 0.150000 0.282843 -0.282843
v -0.150000 0.200000 -0.346410
v 0.150000 0.200000 -0.346410
v -0.150000 0.103528 -0.386370
v 0.150000 0.103528 -0.386370
v -0.150000 0.000000 -0.223400
v -0.150000 -0.057820 -0.215788
v -0.150000 -0.111700 -0.193470
v -0.150000 -0.157967 -0.157967
v -0.150000 -0.193470 -0.111700
v -0.150000 -0.215788 -0.057820
v -0.150000 -0.223400 -0.000000
v -0.150000 -0.215788 0.057820
v -0.150000 -0.193470 0.111700
v -0.150000 -0.157967 0.157967
v -0.150000 -0.111700 0.193470
v -0.150000 -0.057820 0.215788
v -0.150000 0.000000 0.223400
v -0.150000 0.057820 0.215788
v -0.150000 0.111700 0.193470
v -0.150000 0.157967 0.157967
v -0.150000 0.193470 0.111700
v -0.150000 0.215788 0.057820
v -0.150000 0.223400 -0.000000
v -0.150000 0.215788 -0.057820
v -0.150000 0.193470 -0.111700
v -0.150000 0.157967 -0.157967
v -0.150000 0.111700 -0.193470
v -0.150000 0.057820 -0.215788
v -0.081994 -0.000000 -0.223400
v -0.081994 -0.057820 -0.215788
v -0.081994 -0.111700 -0.193470
v -0.081994 -0.157967 -0.157967
v -0.081994 -0.193470 -0.111700
v -0.081994 -0.215788 -0.057820
v -0.081994 -0.223400 -0.000000
v -0.081994 -0.215788 0.057820
v -0.081994 -0.193470 0.111700
v -0.081994 -0.157967 0.157967
v -0.081994 -0.111700 0.193470
v -0.081994 -0.057820 0.215788
v -0.081994 -0.000000 0.223400
v -0.081994 0.057820 0.215788
v -0.081994 0.111700 0.193470
v -0.081994 0.157967 0.157967
v -0.081994 0.193470 0.111700
v -0.081994 0.215788 0.057820
v -0.081994 0.223400 -0.000000
v -0.081994 0.215788 -0.057820
v -0.081994 0.193470 -0.111700
v -0.081994 0.157967 -0.157967
v -0.081994 0.111700 -0.193470
v -0.081994 0.057820 -0.215788
v 0.150000 -0.057775 -0.215620
v 0.150000 -0.000000 -0.223226
v 0.150000 -0.111613 -0.193320
v 0.150000 -0.157845 -0.157845
v 0.150000 -0.193320 -0.111613
v 0.150000 -0.215620 -0.057775
v 0.150000 -0.223226 -0.000000
v 0.150000 -0.215620 0.057775
v 0.150000 -0.193320 0.111613
v 0.150000 -0.157845 0.157845
v 0.150000 -0.111613 0.193320
v 0.150000 -0.057775 0.215620
v 0.150000 -0.000000 0.223226
v 0.150000 0.057775 0.215620
v 0.150000 0.111613 0.193320
v 0.150000 0.157845 0.157845
v 0.150000 0.193320 0.111613
v 0.150000 0.215620 0.057775
v 0.150000 0.223226 -0.000000
v 0.150000 0.215620 -0.057775
v 0.150000 0.193320 -0.111613
v 0.150000 0.157845 -0.157845
v 0.150000 0.111613 -0.193320
v 0.150000 0.057775 -0.215620
v 0.078732 -0.057775 -0.215620
v 0.078732 -0.000000 -0.223226
v 0.078732 -0.111613 -0.193320
v 0.078732 -0.157845 -0.157845
v 0.078732 -0.193320 -0.111613
v 0.078732 -0.215620 -0.057775
v 0.078732 -0.223226 -0.000000
v 0.078732 -0.215620 0.057775
v 0.078732 -0.193320 0.111613
v 0.078732 -0.157845 0.157845
v 0.078732 -0.111613 0.193320
v 0.078732 -0.057775 0.215620
v 0.078732 -0.000000 0.223226
v 0.078732 0.057775 0.215620
v 0.078732 0.111613 0.193320
v 0.078732 0.157845 0.157845
v 0.078732 0.193320 0.111613
v 0.078732 0.215620 0.057775
v 0.078732 0.223226 -0.000000
v 0.078732 0.215620 -0.057775
v 0.078732 0.193320 -0.111613
v 0.078732 0.157845 -0.157845
v 0.078732 0.111613 -0.193320
v 0.078732 0.057775 -0.215620
vn -1.0000 -0.0000 -0.0000
vn 1.0000 -0.0000 -0.0000
vn -0.0000 -0.8660 -0.5000
vn -0.0000 -0.9659 -0.2588
vn -0.0000 -0.9659 0.2588
vn -0.0000 -0.8660 0.5000
vn -0.0000 -0.5000 0.8660
vn -0.0000 -0.2588 0.9659
vn -0.0000 -0.0000 1.0000
vn -0.0000 0.2588 0.9659
vn -0.0000 0.5000 0.8660
vn -0.0000 0.7071 0.7071
vn -0.0000 0.8660 0.5000
vn -0.0000 0.9659 0.2588
vn -0.0000 1.0000 -0.0000
vn -0.0000 0.9659 -0.2588
vn -0.0000 0.8660 -0.5000
vn -0.0000 0.7071 -0.7071
vn -0.0000 0.5000 -0.8660
vn -0.0000 0.2588 -0.9659
vn -0.0000 -0.0000 -1.0000
vn -0.0000 -0.2588 -0.9659
vn -0.0000 -0.5000 -0.8660
vn -0.0000 -0.7071 -0.7071
vn -0.0000 -1.0000 -0.0000
vn -0.0000 -0.7071 0.7071
vt 1.000000 0.000000
vt 0.000000 1.000000
vt 0.000000 0.000000
vt 1.000000 1.000000
s 1
f 161/1/1 201/2/1 15/3/1
f 176/3/2 256/4/2 257/2/2
f 150/1/21 148/2/22 147/3/21
f 155/1/1 198/2/1 9/3/1
f 168/1/2 254/2/2 170/3/2
f 149/1/22 151/2/23 148/3/22
f 193/1/1 217/2/1 191/3/1
f 164/3/2 250/4/2 251/2/2
f 152/1/23 153/2/24 151/3/23
f 187/1/1 214/2/1 185/3/1
f 12/1/2 248/2/2 158/3/2
f 154/1/24 11/2/3 153/3/24
f 181/1/1 211/2/1 35/3/1
f 8/3/2 243/4/2 245/2/2
f 156/1/3 157/2/4 11/3/3
f 29/3/1 209/4/1 208/2/1
f 188/1/2 264/2/2 190/3/2
f 14/1/4 159/2/25 157/3/4
f 23/3/1 206/4/1 205/2/1
f 38/1/2 261/2/2 184/3/2
f 160/1/25 17/2/5 159/3/25
f 163/1/1 202/2/1 161/3/1
f 176/1/2 258/2/2 178/3/2
f 162/1/5 19/2/6 17/3/5
f 5/1/1 195/2/1 3/3/1
f 170/1/2 255/2/2 172/3/2
f 20/1/6 165/2/26 19/3/6
f 13/1/1 199/2/1 155/3/1
f 164/1/2 252/2/2 22/3/2
f 166/1/26 167/2/7 165/3/26
f 7/1/1 196/2/1 5/3/1
f 158/1/2 249/2/2 16/3/2
f 24/1/7 25/2/8 167/3/7
f 189/1/1 215/2/1 187/3/1
f 8/1/2 246/2/2 10/3/2
f 26/1/8 171/2/9 25/3/8
f 183/1/1 212/2/1 181/3/1
f 194/1/2 244/2/2 4/3/2
f 28/1/9 173/2/10 171/3/9
f 177/1/1 209/2/1 175/3/1
f 192/3/2 264/4/2 265/2/2
f 30/1/10 31/2/11 173/3/10
f 169/3/1 207/4/1 206/2/1
f 184/1/2 262/2/2 186/3/2
f 32/1/11 33/2/12 31/3/11
f 163/3/1 204/4/1 203/2/1
f 180/3/2 258/4/2 259/2/2
f 34/1/12 179/2/13 33/3/12
f 3/1/1 218/2/1 193/3/1
f 172/1/2 256/2/2 174/3/2
f 36/1/13 37/2/14 179/3/13
f 13/3/1 201/4/1 200/2/1
f 168/3/2 252/4/2 253/2/2
f 182/1/14 39/2/15 37/3/14
f 7/3/1 198/4/1 197/2/1
f 16/1/2 250/2/2 18/3/2
f 40/1/15 41/2/16 39/3/15
f 191/1/1 216/2/1 189/3/1
f 12/3/2 246/4/2 247/2/2
f 42/1/16 43/2/17 41/3/16
f 183/3/1 214/4/1 213/2/1
f 4/1/2 243/2/2 6/3/2
f 44/1/17 45/2/18 43/3/17
f 35/1/1 210/2/1 177/3/1
f 192/1/2 266/2/2 194/3/2
f 46/1/18 47/2/19 45/3/18
f 29/1/1 207/2/1 27/3/1
f 188/3/2 262/4/2 263/2/2
f 48/1/19 49/2/20 47/3/19
f 23/1/1 204/2/1 21/3/1
f 180/1/2 260/2/2 38/3/2
f 50/1/20 147/2/21 49/3/20
f 57/1/14 223/2/13 56/3/13
f 53/1/9 242/2/8 75/3/8
f 68/1/3 234/2/24 67/3/24
f 51/1/10 219/2/9 53/3/9
f 64/1/21 230/2/20 63/3/20
f 75/1/8 241/2/7 74/3/7
f 60/1/17 226/2/16 59/3/16
f 71/1/5 237/2/25 70/3/25
f 56/1/13 222/2/12 55/3/12
f 67/1/24 233/2/23 66/3/23
f 63/1/20 229/2/19 62/3/19
f 74/1/7 240/2/26 73/3/26
f 59/1/16 225/2/15 58/3/15
f 70/1/25 236/2/4 69/3/4
f 55/1/12 221/2/11 54/3/11
f 66/1/23 232/2/22 65/3/22
f 62/1/19 228/2/18 61/3/18
f 73/1/26 239/2/6 72/3/6
f 58/1/15 224/2/14 57/3/14
f 69/1/4 235/2/3 68/3/3
f 54/1/11 220/2/10 51/3/10
f 65/1/22 231/2/21 64/3/21
f 61/1/18 227/2/17 60/3/17
f 72/1/6 238/2/5 71/3/5
f 76/3/1 77/1/1 1/4/1
f 76/3/1 1/1/1 78/4/1
f 76/3/1 78/1/1 79/4/1
f 76/3/1 79/1/1 80/4/1
f 76/3/1 80/1/1 81/4/1
f 76/3/1 81/1/1 82/4/1
f 76/3/1 82/1/1 83/4/1
f 76/3/1 83/1/1 84/4/1
f 76/3/1 84/1/1 85/4/1
f 76/3/1 85/1/1 86/4/1
f 76/3/1 86/1/1 87/4/1
f 76/3/1 87/1/1 88/4/1
f 76/3/1 88/1/1 89/4/1
f 76/3/1 89/1/1 90/4/1
f 76/3/1 90/1/1 91/4/1
f 76/3/1 91/1/1 92/4/1
f 76/3/1 92/1/1 93/4/1
f 76/3/1 93/1/1 94/4/1
f 76/3/1 94/1/1 95/4/1
f 76/3/1 95/1/1 96/4/1
f 76/3/1 96/1/1 97/4/1
f 76/3/1 97/1/1 98/4/1
f 76/3/1 98/1/1 99/4/1
f 76/3/1 99/1/1 77/4/1
f 118/1/5 287/2/6 119/3/6
f 103/1/13 272/2/14 104/3/14
f 122/1/8 268/2/9 52/3/9
f 114/1/24 283/2/3 115/3/3
f 52/1/9 267/2/10 100/3/10
f 110/1/20 279/2/21 111/3/21
f 121/1/7 290/2/8 122/3/8
f 106/1/16 275/2/17 107/3/17
f 117/1/25 286/2/5 118/3/5
f 102/1/12 271/2/13 103/3/13
f 113/1/23 282/2/24 114/3/24
f 109/1/19 278/2/20 110/3/20
f 120/1/26 289/2/7 121/3/7
f 105/1/15 274/2/16 106/3/16
f 116/1/4 285/2/25 117/3/25
f 101/1/11 270/2/12 102/3/12
f 112/1/22 281/2/23 113/3/23
f 108/1/18 277/2/19 109/3/19
f 119/1/6 288/2/26 120/3/26
f 104/1/14 273/2/15 105/3/15
f 115/1/3 284/2/4 116/3/4
f 100/1/10 269/2/11 101/3/11
f 111/1/21 280/2/22 112/3/22
f 107/1/17 276/2/18 108/3/18
f 123/3/2 124/1/2 2/4/2
f 123/3/2 125/1/2 124/4/2
f 123/3/2 126/1/2 125/4/2
f 123/3/2 127/1/2 126/4/2
f 123/3/2 128/1/2 127/4/2
f 123/3/2 129/1/2 128/4/2
f 123/3/2 130/1/2 129/4/2
f 123/3/2 131/1/2 130/4/2
f 123/3/2 132/1/2 131/4/2
f 123/3/2 133/1/2 132/4/2
f 123/3/2 134/1/2 133/4/2
f 123/3/2 135/1/2 134/4/2
f 123/3/2 136/1/2 135/4/2
f 123/3/2 137/1/2 136/4/2
f 123/3/2 138/1/2 137/4/2
f 123/3/2 139/1/2 138/4/2
f 123/3/2 140/1/2 139/4/2
f 123/3/2 141/1/2 140/4/2
f 123/3/2 142/1/2 141/4/2
f 123/3/2 143/1/2 142/4/2
f 123/3/2 144/1/2 143/4/2
f 123/3/2 145/1/2 144/4/2
f 123/3/2 146/1/2 145/4/2
f 123/3/2 2/1/2 146/4/2
f 161/1/1 202/4/1 201/2/1
f 176/3/2 174/1/2 256/4/2
f 150/1/21 149/4/22 148/2/22
f 155/1/1 199/4/1 198/2/1
f 168/1/2 253/4/2 254/2/2
f 149/1/22 152/4/23 151/2/23
f 193/1/1 218/4/1 217/2/1
f 164/3/2 18/1/2 250/4/2
f 152/1/23 154/4/24 153/2/24
f 187/1/1 215/4/1 214/2/1
f 12/1/2 247/4/2 248/2/2
f 154/1/24 156/4/3 11/2/3
f 181/1/1 212/4/1 211/2/1
f 8/3/2 6/1/2 243/4/2
f 156/1/3 14/4/4 157/2/4
f 29/3/1 175/1/1 209/4/1
f 188/1/2 263/4/2 264/2/2
f 14/1/4 160/4/25 159/2/25
f 23/3/1 169/1/1 206/4/1
f 38/1/2 260/4/2 261/2/2
f 160/1/25 162/4/5 17/2/5
f 163/1/1 203/4/1 202/2/1
f 176/1/2 257/4/2 258/2/2
f 162/1/5 20/4/6 19/2/6
f 5/1/1 196/4/1 195/2/1
f 170/1/2 254/4/2 255/2/2
f 20/1/6 166/4/26 165/2/26
f 13/1/1 200/4/1 199/2/1
f 164/1/2 251/4/2 252/2/2
f 166/1/26 24/4/7 167/2/7
f 7/1/1 197/4/1 196/2/1
f 158/1/2 248/4/2 249/2/2
f 24/1/7 26/4/8 25/2/8
f 189/1/1 216/4/1 215/2/1
f 8/1/2 245/4/2 246/2/2
f 26/1/8 28/4/9 171/2/9
f 183/1/1 213/4/1 212/2/1
f 194/1/2 266/4/2 244/2/2
f 28/1/9 30/4/10 173/2/10
f 177/1/1 210/4/1 209/2/1
f 192/3/2 190/1/2 264/4/2
f 30/1/10 32/4/11 31/2/11
f 169/3/1 27/1/1 207/4/1
f 184/1/2 261/4/2 262/2/2
f 32/1/11 34/4/12 33/2/12
f 163/3/1 21/1/1 204/4/1
f 180/3/2 178/1/2 258/4/2
f 34/1/12 36/4/13 179/2/13
f 3/1/1 195/4/1 218/2/1
f 172/1/2 255/4/2 256/2/2
f 36/1/13 182/4/14 37/2/14
f 13/3/1 15/1/1 201/4/1
f 168/3/2 22/1/2 252/4/2
f 182/1/14 40/4/15 39/2/15
f 7/3/1 9/1/1 198/4/1
f 16/1/2 249/4/2 250/2/2
f 40/1/15 42/4/16 41/2/16
f 191/1/1 217/4/1 216/2/1
f 12/3/2 10/1/2 246/4/2
f 42/1/16 44/4/17 43/2/17
f 183/3/1 185/1/1 214/4/1
f 4/1/2 244/4/2 243/2/2
f 44/1/17 46/4/18 45/2/18
f 35/1/1 211/4/1 210/2/1
f 192/1/2 265/4/2 266/2/2
f 46/1/18 48/4/19 47/2/19
f 29/1/1 208/4/1 207/2/1
f 188/3/2 186/1/2 262/4/2
f 48/1/19 50/4/20 49/2/20
f 23/1/1 205/4/1 204/2/1
f 180/1/2 259/4/2 260/2/2
f 50/1/20 150/4/21 147/2/21
f 57/1/14 224/4/14 223/2/13
f 53/1/9 219/4/9 242/2/8
f 68/1/3 235/4/3 234/2/24
f 51/1/10 220/4/10 219/2/9
f 64/1/21 231/4/21 230/2/20
f 75/1/8 242/4/8 241/2/7
f 60/1/17 227/4/17 226/2/16
f 71/1/5 238/4/5 237/2/25
f 56/1/13 223/4/13 222/2/12
f 67/1/24 234/4/24 233/2/23
f 63/1/20 230/4/20 229/2/19
f 74/1/7 241/4/7 240/2/26
f 59/1/16 226/4/16 225/2/15
f 70/1/25 237/4/25 236/2/4
f 55/1/12 222/4/12 221/2/11
f 66/1/23 233/4/23 232/2/22
f 62/1/19 229/4/19 228/2/18
f 73/1/26 240/4/26 239/2/6
f 58/1/15 225/4/15 224/2/14
f 69/1/4 236/4/4 235/2/3
f 54/1/11 221/4/11 220/2/10
f 65/1/22 232/4/22 231/2/21
f 61/1/18 228/4/18 227/2/17
f 72/1/6 239/4/6 238/2/5
f 118/1/5 286/4/5 287/2/6
f 103/1/13 271/4/13 272/2/14
f 122/1/8 290/4/8 268/2/9
f 114/1/24 282/4/24 283/2/3
f 52/1/9 268/4/9 267/2/10
f 110/1/20 278/4/20 279/2/21
f 121/1/7 289/4/7 290/2/8
f 106/1/16 274/4/16 275/2/17
f 117/1/25 285/4/25 286/2/5
f 102/1/12 270/4/12 271/2/13
f 113/1/23 281/4/23 282/2/24
f 109/1/19 277/4/19 278/2/20
f 120/1/26 288/4/26 289/2/7
f 105/1/15 273/4/15 274/2/16
f 116/1/4 284/4/4 285/2/25
f 101/1/11 269/4/11 270/2/12
f 112/1/22 280/4/22 281/2/23
f 108/1/18 276/4/18 277/2/19
f 119/1/6 287/4/6 288/2/26
f 104/1/14 272/4/14 273/2/15
f 115/1/3 283/4/3 284/2/4
f 100/1/10 267/4/10 269/2/11
f 111/1/21 279/4/21 280/2/22
f 107/1/17 275/4/17 276/2/18
