{
	"asset":{
		"generator":"Khronos glTF Blender I/O v4.5.47",
		"version":"2.0"
	},
	"extensionsUsed":[
		"KHR_materials_specular"
	],
	"scene":0,
	"scenes":[
		{
			"name":"Scene",
			"nodes":[
				0
			]
		}
	],
	"nodes":[
		{
			"mesh":0,
			"name":"wheel",
			"scale":[
				1,
				1,
				1.005886197090149
			]
		}
	],
	"materials":[
		{
			"doubleSided":true,
			"extensions":{
				"KHR_materials_specular":{
					"specularFactor":0.363636314868927
				}
			},
			"name":"tyre",
			"pbrMetallicRoughness":{
				"baseColorTexture":{
					"index":0
				},
				"metallicFactor":0,
				"roughnessFactor":0.800000011920929
			}
		},
		{
			"doubleSided":true,
			"extensions":{
				"KHR_materials_specular":{
					"specularFactor":0.47272729873657227
				}
			},
			"name":"rims",
			"pbrMetallicRoughness":{
				"baseColorFactor":[
					0.8831839561462402,
					0.8831839561462402,
					0.8831839561462402,
					1
				],
				"roughnessFactor":0.20000000298023224
			}
		}
	],
	"meshes":[
		{
			"name":"Circle.007",
			"primitives":[
				{
					"attributes":{
						"POSITION":0,
						"NORMAL":1,
						"TEXCOORD_0":2,
						"TEXCOORD_1":3,
						"TEXCOORD_2":4
					},
					"indices":5,
					"material":0
				},
				{
					"attributes":{
						"POSITION":6,
						"NORMAL":7,
						"TEXCOORD_0":8,
						"TEXCOORD_1":9,
						"TEXCOORD_2":10
					},
					"indices":11,
					"material":1
				}
			]
		}
	],
	"textures":[
		{
			"sampler":0,
			"source":0
		}
	],
	"images":[
		{
			"mimeType":"image/png",
			"name":"aston2.png",
			"uri":"aston2.png"
		}
	],
	"accessors":[
		{
			"bufferView":0,
			"componentType":5126,
			"count":357,
			"max":[
				0.14645341038703918,
				0.3667505085468292,
				0.3623411953449249
			],
			"min":[
				-0.14246711134910583,
				-0.3635213077068329,
				-0.3633870780467987
			],
			"type":"VEC3"
		},
		{
			"bufferView":1,
			"componentType":5126,
			"count":357,
			"type":"VEC3"
		},
		{
			"bufferView":2,
			"componentType":5126,
			"count":357,
			"type":"VEC2"
		},
		{
			"bufferView":3,
			"componentType":5126,
			"count":357,
			"type":"VEC2"
		},
		{
			"bufferView":4,
			"componentType":5126,
			"count":357,
			"type":"VEC2"
		},
		{
			"bufferView":5,
			"componentType":5123,
			"count":1248,
			"type":"SCALAR"
		},
		{
			"bufferView":6,
			"componentType":5126,
			"count":1086,
			"max":[
				0.14814558625221252,
				0.2980223596096039,
				0.2941141426563263
			],
			"min":[
				0.06556465476751328,
				-0.2943800687789917,
				-0.2939690053462982
			],
			"type":"VEC3"
		},
		{
			"bufferView":7,
			"componentType":5126,
			"count":1086,
			"type":"VEC3"
		},
		{
			"bufferView":8,
			"componentType":5126,
			"count":1086,
			"type":"VEC2"
		},
		{
			"bufferView":9,
			"componentType":5126,
			"count":1086,
			"type":"VEC2"
		},
		{
			"bufferView":10,
			"componentType":5126,
			"count":1086,
			"type":"VEC2"
		},
		{
			"bufferView":11,
			"componentType":5123,
			"count":2982,
			"type":"SCALAR"
		}
	],
	"bufferViews":[
		{
			"buffer":0,
			"byteLength":4284,
			"byteOffset":0,
			"target":34962
		},
		{
			"buffer":0,
			"byteLength":4284,
			"byteOffset":4284,
			"target":34962
		},
		{
			"buffer":0,
			"byteLength":2856,
			"byteOffset":8568,
			"target":34962
		},
		{
			"buffer":0,
			"byteLength":2856,
			"byteOffset":11424,
			"target":34962
		},
		{
			"buffer":0,
			"byteLength":2856,
			"byteOffset":14280,
			"target":34962
		},
		{
			"buffer":0,
			"byteLength":2496,
			"byteOffset":17136,
			"target":34963
		},
		{
			"buffer":0,
			"byteLength":13032,
			"byteOffset":19632,
			"target":34962
		},
		{
			"buffer":0,
			"byteLength":13032,
			"byteOffset":32664,
			"target":34962
		},
		{
			"buffer":0,
			"byteLength":8688,
			"byteOffset":45696,
			"target":34962
		},
		{
			"buffer":0,
			"byteLength":8688,
			"byteOffset":54384,
			"target":34962
		},
		{
			"buffer":0,
			"byteLength":8688,
			"byteOffset":63072,
			"target":34962
		},
		{
			"buffer":0,
			"byteLength":5964,
			"byteOffset":71760,
			"target":34963
		}
	],
	"samplers":[
		{
			"magFilter":9729,
			"minFilter":9987
		}
	],
	"buffers":[
		{
			"byteLength":77724,
			"uri":"aston_martin_one77_wheel.bin"
		}
	]
}
