{
	"asset":{
		"generator":"Khronos glTF Blender I/O v4.5.47",
		"version":"2.0"
	},
	"extensionsUsed":[
		"KHR_materials_specular"
	],
	"scene":0,
	"scenes":[
		{
			"name":"Scene",
			"nodes":[
				1
			]
		}
	],
	"nodes":[
		{
			"mesh":0,
			"name":"windows"
		},
		{
			"children":[
				0
			],
			"name":"root"
		}
	],
	"materials":[
		{
			"alphaMode":"BLEND",
			"extensions":{
				"KHR_materials_specular":{
					"specularFactor":0.5272727012634277
				}
			},
			"name":"glass",
			"pbrMetallicRoughness":{
				"baseColorFactor":[
					0.005187581293284893,
					0.005187581293284893,
					0.005187581293284893,
					0.6000000238418579
				],
				"roughnessFactor":0.009999999776482582
			}
		}
	],
	"meshes":[
		{
			"name":"Plane.008",
			"primitives":[
				{
					"attributes":{
						"POSITION":0,
						"NORMAL":1,
						"TEXCOORD_0":2,
						"TEXCOORD_1":3,
						"TEXCOORD_2":4
					},
					"indices":5,
					"material":0
				}
			]
		}
	],
	"accessors":[
		{
			"bufferView":0,
			"componentType":5126,
			"count":301,
			"max":[
				0.9311795234680176,
				0.8676968812942505,
				2.2608728408813477
			],
			"min":[
				-0.9311796426773071,
				0.2369568645954132,
				-1.9403361082077026
			],
			"type":"VEC3"
		},
		{
			"bufferView":1,
			"componentType":5126,
			"count":301,
			"type":"VEC3"
		},
		{
			"bufferView":2,
			"componentType":5126,
			"count":301,
			"type":"VEC2"
		},
		{
			"bufferView":3,
			"componentType":5126,
			"count":301,
			"type":"VEC2"
		},
		{
			"bufferView":4,
			"componentType":5126,
			"count":301,
			"type":"VEC2"
		},
		{
			"bufferView":5,
			"componentType":5123,
			"count":978,
			"type":"SCALAR"
		}
	],
	"bufferViews":[
		{
			"buffer":0,
			"byteLength":3612,
			"byteOffset":0,
			"target":34962
		},
		{
			"buffer":0,
			"byteLength":3612,
			"byteOffset":3612,
			"target":34962
		},
		{
			"buffer":0,
			"byteLength":2408,
			"byteOffset":7224,
			"target":34962
		},
		{
			"buffer":0,
			"byteLength":2408,
			"byteOffset":9632,
			"target":34962
		},
		{
			"buffer":0,
			"byteLength":2408,
			"byteOffset":12040,
			"target":34962
		},
		{
			"buffer":0,
			"byteLength":1956,
			"byteOffset":14448,
			"target":34963
		}
	],
	"buffers":[
		{
			"byteLength":16404,
			"uri":"aston_martin_one77_windows.bin"
		}
	]
}
