{
	"asset":{
		"generator":"Khronos glTF Blender I/O v4.5.47",
		"version":"2.0"
	},
	"extensionsUsed":[
		"KHR_materials_clearcoat",
		"KHR_materials_specular",
		"EXT_texture_webp"
	],
	"extensionsRequired":[
		"EXT_texture_webp"
	],
	"scene":0,
	"scenes":[
		{
			"name":"Scene",
			"nodes":[
				0
			]
		}
	],
	"nodes":[
		{
			"mesh":0,
			"name":"Object_50",
			"scale":[
				1.0078500509262085,
				1.0078500509262085,
				1.0078492164611816
			]
		}
	],
	"materials":[
		{
			"name":"material_48",
			"pbrMetallicRoughness":{
				"baseColorTexture":{
					"index":0
				},
				"metallicFactor":0,
				"roughnessFactor":0.10000000149011612
			}
		},
		{
			"name":"rimbolt",
			"pbrMetallicRoughness":{
				"baseColorTexture":{
					"index":1
				},
				"metallicFactor":0.8999999761581421,
				"roughnessFactor":0.5
			}
		},
		{
			"extensions":{
				"KHR_materials_clearcoat":{
					"clearcoatFactor":0.30000001192092896,
					"clearcoatRoughnessFactor":0.03999999910593033
				},
				"KHR_materials_specular":{
					"specularFactor":0
				}
			},
			"name":"rimlogo",
			"pbrMetallicRoughness":{
				"baseColorTexture":{
					"index":2
				},
				"metallicFactor":0,
				"roughnessFactor":0
			}
		},
		{
			"extensions":{
				"KHR_materials_specular":{
					"specularFactor":0
				}
			},
			"name":"tire",
			"pbrMetallicRoughness":{
				"baseColorTexture":{
					"index":3
				},
				"metallicFactor":0
			}
		},
		{
			"extensions":{
				"KHR_materials_specular":{
					"specularFactor":0
				}
			},
			"name":"tire_side",
			"pbrMetallicRoughness":{
				"baseColorTexture":{
					"index":4
				},
				"metallicFactor":0
			}
		}
	],
	"meshes":[
		{
			"name":"Object_48",
			"primitives":[
				{
					"attributes":{
						"POSITION":0,
						"NORMAL":1,
						"TEXCOORD_0":2
					},
					"indices":3,
					"material":0
				},
				{
					"attributes":{
						"POSITION":4,
						"NORMAL":5,
						"TEXCOORD_0":6
					},
					"indices":7,
					"material":1
				},
				{
					"attributes":{
						"POSITION":8,
						"NORMAL":9,
						"TEXCOORD_0":10
					},
					"indices":11,
					"material":2
				},
				{
					"attributes":{
						"POSITION":12,
						"NORMAL":13,
						"TEXCOORD_0":14
					},
					"indices":15,
					"material":3
				},
				{
					"attributes":{
						"POSITION":16,
						"NORMAL":17,
						"TEXCOORD_0":18
					},
					"indices":19,
					"material":4
				}
			]
		}
	],
	"textures":[
		{
			"extensions":{
				"EXT_texture_webp":{
					"source":0
				}
			},
			"sampler":0
		},
		{
			"extensions":{
				"EXT_texture_webp":{
					"source":0
				}
			},
			"sampler":0
		},
		{
			"extensions":{
				"EXT_texture_webp":{
					"source":0
				}
			},
			"sampler":0
		},
		{
			"extensions":{
				"EXT_texture_webp":{
					"source":1
				}
			},
			"sampler":0
		},
		{
			"extensions":{
				"EXT_texture_webp":{
					"source":0
				}
			},
			"sampler":0
		}
	],
	"images":[
		{
			"mimeType":"image/webp",
			"name":"Image",
			"uri":"Image.webp"
		},
		{
			"mimeType":"image/webp",
			"name":"Image",
			"uri":"Image-3.webp"
		}
	],
	"accessors":[
		{
			"bufferView":0,
			"componentType":5126,
			"count":2494,
			"max":[
				0.12743087112903595,
				0.27352508902549744,
				0.273411363363266
			],
			"min":[
				0.05081146955490112,
				-0.2735219895839691,
				-0.2736402451992035
			],
			"type":"VEC3"
		},
		{
			"bufferView":1,
			"componentType":5126,
			"count":2494,
			"type":"VEC3"
		},
		{
			"bufferView":2,
			"componentType":5126,
			"count":2494,
			"type":"VEC2"
		},
		{
			"bufferView":3,
			"componentType":5123,
			"count":9036,
			"type":"SCALAR"
		},
		{
			"bufferView":4,
			"componentType":5126,
			"count":312,
			"max":[
				0.12494561076164246,
				0.040400367230176926,
				0.04233649745583534
			],
			"min":[
				-0.026400452479720116,
				-0.04089651256799698,
				-0.04254818707704544
			],
			"type":"VEC3"
		},
		{
			"bufferView":5,
			"componentType":5126,
			"count":312,
			"type":"VEC3"
		},
		{
			"bufferView":6,
			"componentType":5126,
			"count":312,
			"type":"VEC2"
		},
		{
			"bufferView":7,
			"componentType":5123,
			"count":972,
			"type":"SCALAR"
		},
		{
			"bufferView":8,
			"componentType":5126,
			"count":37,
			"max":[
				0.12456576526165009,
				0.02368730492889881,
				0.023493140935897827
			],
			"min":[
				0.11891151964664459,
				-0.02359751984477043,
				-0.023790553212165833
			],
			"type":"VEC3"
		},
		{
			"bufferView":9,
			"componentType":5126,
			"count":37,
			"type":"VEC3"
		},
		{
			"bufferView":10,
			"componentType":5126,
			"count":37,
			"type":"VEC2"
		},
		{
			"bufferView":11,
			"componentType":5123,
			"count":108,
			"type":"SCALAR"
		},
		{
			"bufferView":12,
			"componentType":5126,
			"count":671,
			"max":[
				0.1228184849023819,
				0.3767734169960022,
				0.3768072724342346
			],
			"min":[
				-0.1369689255952835,
				-0.3767735958099365,
				-0.3768559992313385
			],
			"type":"VEC3"
		},
		{
			"bufferView":13,
			"componentType":5126,
			"count":671,
			"type":"VEC3"
		},
		{
			"bufferView":14,
			"componentType":5126,
			"count":671,
			"type":"VEC2"
		},
		{
			"bufferView":15,
			"componentType":5123,
			"count":3600,
			"type":"SCALAR"
		},
		{
			"bufferView":16,
			"componentType":5126,
			"count":600,
			"max":[
				0.13120755553245544,
				0.3486044108867645,
				0.3485191762447357
			],
			"min":[
				-0.14535365998744965,
				-0.348600298166275,
				-0.3485698103904724
			],
			"type":"VEC3"
		},
		{
			"bufferView":17,
			"componentType":5126,
			"count":600,
			"type":"VEC3"
		},
		{
			"bufferView":18,
			"componentType":5126,
			"count":600,
			"type":"VEC2"
		},
		{
			"bufferView":19,
			"componentType":5123,
			"count":2880,
			"type":"SCALAR"
		}
	],
	"bufferViews":[
		{
			"buffer":0,
			"byteLength":29928,
			"byteOffset":0,
			"target":34962
		},
		{
			"buffer":0,
			"byteLength":29928,
			"byteOffset":29928,
			"target":34962
		},
		{
			"buffer":0,
			"byteLength":19952,
			"byteOffset":59856,
			"target":34962
		},
		{
			"buffer":0,
			"byteLength":18072,
			"byteOffset":79808,
			"target":34963
		},
		{
			"buffer":0,
			"byteLength":3744,
			"byteOffset":97880,
			"target":34962
		},
		{
			"buffer":0,
			"byteLength":3744,
			"byteOffset":101624,
			"target":34962
		},
		{
			"buffer":0,
			"byteLength":2496,
			"byteOffset":105368,
			"target":34962
		},
		{
			"buffer":0,
			"byteLength":1944,
			"byteOffset":107864,
			"target":34963
		},
		{
			"buffer":0,
			"byteLength":444,
			"byteOffset":109808,
			"target":34962
		},
		{
			"buffer":0,
			"byteLength":444,
			"byteOffset":110252,
			"target":34962
		},
		{
			"buffer":0,
			"byteLength":296,
			"byteOffset":110696,
			"target":34962
		},
		{
			"buffer":0,
			"byteLength":216,
			"byteOffset":110992,
			"target":34963
		},
		{
			"buffer":0,
			"byteLength":8052,
			"byteOffset":111208,
			"target":34962
		},
		{
			"buffer":0,
			"byteLength":8052,
			"byteOffset":119260,
			"target":34962
		},
		{
			"buffer":0,
			"byteLength":5368,
			"byteOffset":127312,
			"target":34962
		},
		{
			"buffer":0,
			"byteLength":7200,
			"byteOffset":132680,
			"target":34963
		},
		{
			"buffer":0,
			"byteLength":7200,
			"byteOffset":139880,
			"target":34962
		},
		{
			"buffer":0,
			"byteLength":7200,
			"byteOffset":147080,
			"target":34962
		},
		{
			"buffer":0,
			"byteLength":4800,
			"byteOffset":154280,
			"target":34962
		},
		{
			"buffer":0,
			"byteLength":5760,
			"byteOffset":159080,
			"target":34963
		}
	],
	"samplers":[
		{
			"magFilter":9729,
			"minFilter":9987
		}
	],
	"buffers":[
		{
			"byteLength":164840,
			"uri":"mclaren_f1_1993_wheel_rear.bin"
		}
	]
}
